<svg width="74" height="21" viewBox="0 0 74 21" fill="none" xmlns="http://www.w3.org/2000/svg">
<path d="M10.2461 19C14.6644 19 18.2461 15.4183 18.2461 11C18.2461 6.58172 14.6644 3 10.2461 3C5.82782 3 2.24609 6.58172 2.24609 11C2.24609 15.4183 5.82782 19 10.2461 19Z" fill="url(#paint0_linear_345_10645)"/>
<path d="M10.1743 15.0876C12.4516 15.0876 14.2977 13.2211 14.2977 10.9188C14.2977 8.61644 12.4516 6.75 10.1743 6.75C7.89693 6.75 6.05078 8.61644 6.05078 10.9188C6.05078 13.2211 7.89693 15.0876 10.1743 15.0876Z" stroke="white"/>
<path d="M12.0312 14.4193V10.8877L5.57812 16.1697" stroke="white" stroke-linecap="round" stroke-linejoin="round"/>
<path d="M8.31641 7.4179V10.9495L14.7695 5.66748" stroke="white" stroke-linecap="round" stroke-linejoin="round"/>
<path fill-rule="evenodd" clip-rule="evenodd" d="M26.778 11.2808H31.1182C31.1566 11.0206 31.1758 10.8051 31.1758 10.6343C31.1758 9.72353 30.8995 8.95915 30.3469 8.3411C29.8096 7.72309 29.1151 7.41406 28.2631 7.41406C27.3651 7.41406 26.6361 7.72309 26.0758 8.3411C25.5079 8.95915 25.2239 9.72353 25.2239 10.6343C25.2239 11.5614 25.5117 12.3298 26.0873 12.9397C26.6629 13.5497 27.4266 13.8546 28.3783 13.8546C29.4835 13.8546 30.32 13.4195 30.8879 12.5494L29.6906 11.8175C29.399 12.2241 28.9692 12.4274 28.4013 12.4274C27.511 12.4274 26.9699 12.0452 26.778 11.2808ZM29.6906 10.061H26.755C26.8395 9.67071 27.0121 9.36983 27.2731 9.15839C27.534 8.93882 27.864 8.82903 28.2631 8.82903C28.6162 8.82903 28.9194 8.93477 29.1726 9.1462C29.4336 9.35763 29.6062 9.66256 29.6906 10.061ZM22.2377 12.2077L24.6783 8.63378V7.58472H20.3612V9.0607H22.6752L20.2461 12.6347V13.6837H24.7935V12.2077H22.2377ZM33.6975 7.58487V8.63394C33.8279 8.2517 34.0505 7.96301 34.3652 7.76787C34.6799 7.56453 35.0406 7.46289 35.4474 7.46289V9.21941C34.9945 9.15435 34.5878 9.25195 34.227 9.51215C33.874 9.76426 33.6975 10.1831 33.6975 10.7686V13.6839H32.2124V7.58487H33.6975ZM38.8425 13.8546C39.7021 13.8546 40.4235 13.5456 41.0069 12.9275C41.5978 12.3014 41.8933 11.537 41.8933 10.6343C41.8933 9.73982 41.5978 8.97949 41.0069 8.35329C40.4159 7.72714 39.6944 7.41406 38.8425 7.41406C37.9906 7.41406 37.2692 7.72714 36.6782 8.35329C36.0949 8.97135 35.8032 9.73167 35.8032 10.6343C35.8032 11.5451 36.0949 12.3095 36.6782 12.9275C37.2615 13.5456 37.9829 13.8546 38.8425 13.8546ZM38.8425 12.3176C38.3974 12.3176 38.0251 12.1591 37.7258 11.842C37.4342 11.5166 37.2883 11.1141 37.2883 10.6343C37.2883 10.1545 37.4342 9.75201 37.7258 9.42674C38.0251 9.10957 38.3974 8.95101 38.8425 8.95101C39.2876 8.95101 39.6599 9.10957 39.9592 9.42674C40.2585 9.74387 40.4082 10.1464 40.4082 10.6343C40.4082 11.1223 40.2585 11.5248 39.9592 11.842C39.6599 12.1591 39.2876 12.3176 38.8425 12.3176ZM44.1842 9.31696C44.1842 9.57716 44.5334 9.80079 45.2319 9.98783C45.4775 10.0448 45.7 10.1139 45.8996 10.1952C46.0991 10.2684 46.2987 10.3782 46.4982 10.5245C46.7054 10.6628 46.8666 10.8498 46.9818 11.0857C47.0971 11.3215 47.1545 11.5939 47.1545 11.9029C47.1545 12.5291 46.9316 13.013 46.4867 13.3545C46.0416 13.6879 45.4928 13.8546 44.8405 13.8546C43.6585 13.8546 42.8526 13.3708 42.4229 12.403L43.7122 11.6346C43.8887 12.1631 44.2648 12.4274 44.8405 12.4274C45.37 12.4274 45.6348 12.2526 45.6348 11.9029C45.6348 11.6427 45.2856 11.4191 44.5872 11.232C44.3262 11.1588 44.1037 11.0857 43.9195 11.0125C43.7353 10.9393 43.5357 10.8336 43.3208 10.6953C43.1059 10.5489 42.9409 10.366 42.8258 10.1464C42.7184 9.91872 42.6646 9.65442 42.6646 9.35353C42.6646 8.75177 42.8718 8.28013 43.2863 7.93857C43.7084 7.58892 44.2303 7.41406 44.8519 7.41406C45.3201 7.41406 45.7461 7.5279 46.1298 7.75562C46.5136 7.97515 46.8167 8.29232 47.0392 8.70704L45.7729 9.43894C45.5888 9.02422 45.2818 8.81683 44.8519 8.81683C44.6601 8.81683 44.4989 8.86561 44.3684 8.9632C44.2456 9.05265 44.1842 9.17059 44.1842 9.31696ZM54.4223 7.58472L53.4438 11.3417L52.3961 7.58472H50.9918L49.9441 11.3295L48.9656 7.58472H47.3882L49.2187 13.6837H50.6347L51.6942 9.98773L52.7532 13.6837H54.1692L55.9997 7.58472H54.4223ZM60.9495 8.30452V7.58482H62.4347V13.6838H60.9495V12.9641C60.5048 13.5578 59.8793 13.8546 59.0734 13.8546C58.3059 13.8546 57.6456 13.5456 57.0933 12.9275C56.5482 12.3014 56.2756 11.537 56.2756 10.6343C56.2756 9.73982 56.5482 8.97949 57.0933 8.35329C57.6456 7.72714 58.3059 7.41406 59.0734 7.41406C59.8793 7.41406 60.5048 7.7109 60.9495 8.30452ZM58.2096 11.8785C58.5093 12.1957 58.889 12.3543 59.3495 12.3543C59.8101 12.3543 60.1897 12.1957 60.4894 11.8785C60.7963 11.5533 60.9495 11.1385 60.9495 10.6343C60.9495 10.1302 60.7963 9.71948 60.4894 9.40236C60.1897 9.07704 59.8101 8.91443 59.3495 8.91443C58.889 8.91443 58.5093 9.07704 58.2096 9.40236C57.9104 9.71948 57.7608 10.1302 57.7608 10.6343C57.7608 11.1385 57.9104 11.5533 58.2096 11.8785ZM69.1119 8.35329C68.5668 7.72714 67.9069 7.41406 67.1318 7.41406C66.3259 7.41406 65.7045 7.7109 65.2669 8.30452V7.58482H63.7817V16.1234H65.2669V12.9641C65.7045 13.5578 66.3259 13.8546 67.1318 13.8546C67.9146 13.8546 68.5745 13.5456 69.1119 12.9275C69.6647 12.3095 69.9408 11.5451 69.9408 10.6343C69.9408 9.73982 69.6647 8.97949 69.1119 8.35329ZM66.8556 12.3543C66.3951 12.3543 66.0149 12.1957 65.7157 11.8785C65.4165 11.5533 65.2669 11.1385 65.2669 10.6343C65.2669 10.1302 65.4165 9.71948 65.7157 9.40236C66.0149 9.07704 66.3951 8.91443 66.8556 8.91443C67.3162 8.91443 67.6958 9.07704 67.995 9.40236C68.3024 9.71948 68.4556 10.1302 68.4556 10.6343C68.4556 11.1385 68.3024 11.5533 67.995 11.8785C67.6958 12.1957 67.3162 12.3543 66.8556 12.3543Z" fill="url(#paint1_linear_345_10645)"/>
<defs>
<linearGradient id="paint0_linear_345_10645" x1="2.24609" y1="3" x2="19.676" y2="4.7488" gradientUnits="userSpaceOnUse">
<stop stop-color="#087EE1"/>
<stop offset="1" stop-color="#04C29C"/>
</linearGradient>
<linearGradient id="paint1_linear_345_10645" x1="20.2461" y1="7.41406" x2="61.4292" y2="30.9911" gradientUnits="userSpaceOnUse">
<stop stop-color="#087EE1"/>
<stop offset="1" stop-color="#04C29C"/>
</linearGradient>
</defs>
</svg>
