<svg  viewBox="0 0 50 51" fill="none" xmlns="http://www.w3.org/2000/svg">
<path fill-rule="evenodd" clip-rule="evenodd" d="M9.68042 32.5393C10.3102 33.1061 10.3612 34.0761 9.79445 34.7059L9.77399 34.7286C9.20721 35.3584 8.23722 35.4094 7.60746 34.8426C6.9777 34.2758 6.92665 33.3058 7.49343 32.6761L7.51389 32.6534C8.08067 32.0236 9.05066 31.9725 9.68042 32.5393Z" fill="#F1B500"/>
<path fill-rule="evenodd" clip-rule="evenodd" d="M9.68042 40.721C10.3102 41.2878 10.3612 42.2577 9.79445 42.8875L9.77399 42.9102C9.20721 43.54 8.23722 43.591 7.60746 43.0243C6.9777 42.4575 6.92665 41.4875 7.49343 40.8577L7.51389 40.835C8.08067 40.2052 9.05066 40.1542 9.68042 40.721Z" fill="#F1B500"/>
<path fill-rule="evenodd" clip-rule="evenodd" d="M9.68042 16.1756C10.3102 16.7423 10.3612 17.7123 9.79445 18.3421L9.77399 18.3648C9.20721 18.9946 8.23722 19.0456 7.60746 18.4788C6.9777 17.9121 6.92665 16.9421 7.49343 16.3123L7.51389 16.2896C8.08067 15.6598 9.05066 15.6088 9.68042 16.1756Z" fill="#F1B500"/>
<path fill-rule="evenodd" clip-rule="evenodd" d="M9.68042 7.99392C10.3102 8.56071 10.3612 9.5307 9.79445 10.1605L9.77399 10.1832C9.20721 10.8129 8.23722 10.864 7.60746 10.2972C6.9777 9.73042 6.92665 8.76043 7.49343 8.13068L7.51389 8.10795C8.08067 7.47819 9.05066 7.42714 9.68042 7.99392Z" fill="#F1B500"/>
<path fill-rule="evenodd" clip-rule="evenodd" d="M9.68042 24.3572C10.3102 24.924 10.3612 25.894 9.79445 26.5237L9.77399 26.5465C9.20721 27.1762 8.23722 27.2273 7.60746 26.6605C6.9777 26.0937 6.92665 25.1237 7.49343 24.494L7.51389 24.4712C8.08067 23.8415 9.05066 23.7904 9.68042 24.3572Z" fill="#F1B500"/>
<path fill-rule="evenodd" clip-rule="evenodd" d="M17.8699 40.721C18.4996 41.2878 18.5507 42.2577 17.9839 42.8875L17.9634 42.9102C17.3967 43.54 16.4267 43.591 15.7969 43.0243C15.1672 42.4575 15.1161 41.4875 15.6829 40.8577L15.7033 40.835C16.2701 40.2052 17.2401 40.1542 17.8699 40.721Z" fill="#F1B500"/>
<path fill-rule="evenodd" clip-rule="evenodd" d="M26.0496 40.721C26.6793 41.2878 26.7304 42.2577 26.1636 42.8875L26.1431 42.9102C25.5763 43.54 24.6064 43.591 23.9766 43.0243C23.3468 42.4575 23.2958 41.4875 23.8626 40.8577L23.883 40.835C24.4498 40.2052 25.4198 40.1542 26.0496 40.721Z" fill="#F1B500"/>
<path fill-rule="evenodd" clip-rule="evenodd" d="M34.2312 40.721C34.861 41.2878 34.912 42.2577 34.3452 42.8875L34.3248 42.9102C33.758 43.54 32.788 43.591 32.1582 43.0243C31.5285 42.4575 31.4774 41.4875 32.0442 40.8577L32.0647 40.835C32.6315 40.2052 33.6014 40.1542 34.2312 40.721Z" fill="#F1B500"/>
<path fill-rule="evenodd" clip-rule="evenodd" d="M42.4109 40.721C43.0406 41.2878 43.0917 42.2577 42.5249 42.8875L42.5045 42.9102C41.9377 43.54 40.9677 43.591 40.3379 43.0243C39.7082 42.4575 39.6571 41.4875 40.2239 40.8577L40.2444 40.835C40.8111 40.2052 41.7811 40.1542 42.4109 40.721Z" fill="#F1B500"/>
<path fill-rule="evenodd" clip-rule="evenodd" d="M42.4109 32.5393C43.0406 33.1061 43.0917 34.0761 42.5249 34.7059L42.5045 34.7286C41.9377 35.3584 40.9677 35.4094 40.3379 34.8426C39.7082 34.2758 39.6571 33.3058 40.2239 32.6761L40.2444 32.6534C40.8111 32.0236 41.7811 31.9725 42.4109 32.5393Z" fill="#F1B500"/>
<path fill-rule="evenodd" clip-rule="evenodd" d="M42.4109 24.3572C43.0406 24.924 43.0917 25.894 42.5249 26.5237L42.5045 26.5465C41.9377 27.1762 40.9677 27.2273 40.3379 26.6605C39.7082 26.0937 39.6571 25.1237 40.2239 24.494L40.2444 24.4712C40.8111 23.8415 41.7811 23.7904 42.4109 24.3572Z" fill="#F1B500"/>
<path fill-rule="evenodd" clip-rule="evenodd" d="M42.4109 16.1756C43.0406 16.7423 43.0917 17.7123 42.5249 18.3421L42.5045 18.3648C41.9377 18.9946 40.9677 19.0456 40.3379 18.4788C39.7082 17.9121 39.6571 16.9421 40.2239 16.3123L40.2444 16.2896C40.8111 15.6598 41.7811 15.6088 42.4109 16.1756Z" fill="#F1B500"/>
<path fill-rule="evenodd" clip-rule="evenodd" d="M42.4109 7.99392C43.0406 8.56071 43.0917 9.5307 42.5249 10.1605L42.5045 10.1832C41.9377 10.8129 40.9677 10.864 40.3379 10.2972C39.7082 9.73042 39.6571 8.76043 40.2239 8.13068L40.2444 8.10795C40.8111 7.47819 41.7811 7.42714 42.4109 7.99392Z" fill="#F1B500"/>
<path fill-rule="evenodd" clip-rule="evenodd" d="M34.2312 7.99392C34.861 8.56071 34.912 9.5307 34.3452 10.1605L34.3248 10.1832C33.758 10.8129 32.788 10.864 32.1582 10.2972C31.5285 9.73042 31.4774 8.76043 32.0442 8.13068L32.0647 8.10795C32.6315 7.47819 33.6014 7.42714 34.2312 7.99392Z" fill="#F1B500"/>
<path fill-rule="evenodd" clip-rule="evenodd" d="M26.0496 7.99392C26.6793 8.56071 26.7304 9.5307 26.1636 10.1605L26.1431 10.1832C25.5763 10.8129 24.6064 10.864 23.9766 10.2972C23.3468 9.73042 23.2958 8.76043 23.8626 8.13068L23.883 8.10795C24.4498 7.47819 25.4198 7.42714 26.0496 7.99392Z" fill="#F1B500"/>
<path fill-rule="evenodd" clip-rule="evenodd" d="M17.8699 7.99392C18.4996 8.56071 18.5507 9.5307 17.9839 10.1605L17.9634 10.1832C17.3967 10.8129 16.4267 10.864 15.7969 10.2972C15.1672 9.73042 15.1161 8.76043 15.6829 8.13068L15.7033 8.10795C16.2701 7.47819 17.2401 7.42714 17.8699 7.99392Z" fill="#F1B500"/>
<path fill-rule="evenodd" clip-rule="evenodd" d="M15.2891 17.318C15.2891 16.4708 15.9759 15.7839 16.8232 15.7839H33.1868C34.034 15.7839 34.7209 16.4708 34.7209 17.318V33.6817C34.7209 34.5289 34.034 35.2158 33.1868 35.2158H16.8232C15.9759 35.2158 15.2891 34.5289 15.2891 33.6817V17.318ZM18.3572 18.8521V32.1476H31.6527V18.8521H18.3572Z" fill="#F1B500"/>
</svg>
