<svg  viewBox="0 0 17 16" fill="none" xmlns="http://www.w3.org/2000/svg">
<g id="info-circle">
<path id="Subtract" fill-rule="evenodd" clip-rule="evenodd" d="M1.33398 8.00016C1.33398 4.04212 4.54261 0.833496 8.50065 0.833496C12.4587 0.833496 15.6673 4.04212 15.6673 8.00016C15.6673 11.9582 12.4587 15.1668 8.50065 15.1668C4.54261 15.1668 1.33398 11.9582 1.33398 8.00016ZM8.50065 7.16683C8.77679 7.16683 9.00065 7.39069 9.00065 7.66683V11.0002C9.00065 11.2763 8.77679 11.5002 8.50065 11.5002C8.22451 11.5002 8.00065 11.2763 8.00065 11.0002V7.66683C8.00065 7.39069 8.22451 7.16683 8.50065 7.16683ZM8.87897 5.334C9.0637 5.12874 9.04706 4.8126 8.8418 4.62787C8.63655 4.44314 8.3204 4.45978 8.13567 4.66503L8.12901 4.67244C7.94428 4.8777 7.96092 5.19384 8.16617 5.37857C8.37143 5.5633 8.68757 5.54666 8.8723 5.34141L8.87897 5.334Z" fill="#FFD24B"/>
</g>
</svg>
