<svg viewBox="0 0 20 20" fill="currentColor" xmlns="http://www.w3.org/2000/svg">
<g id="language">
<path id="Vector (Stroke)" fill-rule="evenodd" clip-rule="evenodd" d="M10.0013 2.2915C5.74411 2.2915 2.29297 5.74264 2.29297 9.99984C2.29297 14.257 5.74411 17.7082 10.0013 17.7082C14.2585 17.7082 17.7096 14.257 17.7096 9.99984C17.7096 5.74264 14.2585 2.2915 10.0013 2.2915ZM1.04297 9.99984C1.04297 5.05229 5.05375 1.0415 10.0013 1.0415C14.9489 1.0415 18.9596 5.05229 18.9596 9.99984C18.9596 14.9474 14.9489 18.9582 10.0013 18.9582C5.05375 18.9582 1.04297 14.9474 1.04297 9.99984Z" fill="currentColor"/>
<path id="Vector (Stroke)_2" fill-rule="evenodd" clip-rule="evenodd" d="M10.4541 1.21029C10.729 1.00154 11.1211 1.05516 11.3298 1.33006L10.8321 1.70804C11.3298 1.33006 11.33 1.33025 11.3301 1.33046L11.3305 1.33093L11.3314 1.33209L11.3338 1.33534L11.3413 1.34547C11.3475 1.35382 11.356 1.36539 11.3667 1.38012C11.388 1.40957 11.4179 1.45167 11.4551 1.50604C11.5296 1.61477 11.6336 1.77267 11.7572 1.97666C12.0043 2.38443 12.3305 2.97767 12.6559 3.73146C13.3061 5.23796 13.9571 7.39589 13.9571 10.0002C13.9571 12.6046 13.3061 14.7625 12.6559 16.269C12.3305 17.0228 12.0043 17.616 11.7572 18.0238C11.6336 18.2278 11.5296 18.3857 11.4551 18.4944C11.4179 18.5488 11.388 18.5909 11.3667 18.6203C11.356 18.6351 11.3475 18.6466 11.3413 18.655L11.3338 18.6651L11.3314 18.6684L11.3305 18.6695L11.3301 18.67C11.33 18.6702 11.3298 18.6704 10.8321 18.2924L11.3298 18.6704C11.1211 18.9453 10.729 18.9989 10.4541 18.7902C10.1794 18.5816 10.1257 18.19 10.3338 17.9151C10.3338 17.9151 10.3339 17.915 10.334 17.9149C10.334 17.9148 10.334 17.9148 10.3341 17.9148L10.3343 17.9144L10.3371 17.9106L10.3536 17.8881C10.3689 17.8669 10.3928 17.8334 10.4239 17.788C10.4861 17.6971 10.5774 17.5588 10.6882 17.376C10.9098 17.0102 11.2086 16.4679 11.5082 15.7736C12.108 14.3841 12.7071 12.3959 12.7071 10.0002C12.7071 7.60457 12.108 5.6164 11.5082 4.22681C11.2086 3.53256 10.9098 2.99024 10.6882 2.62448C10.5774 2.4417 10.4861 2.30334 10.4239 2.21249C10.3928 2.16708 10.3689 2.13357 10.3536 2.11235L10.3371 2.08981L10.3343 2.08602L10.3341 2.0857C10.1256 1.81082 10.1793 1.41896 10.4541 1.21029ZM10.3337 2.0852L10.3339 2.08546L10.334 2.08555C10.3338 2.08537 10.3337 2.08525 10.3337 2.0852Z" fill="currentColor"/>
<path id="Vector (Stroke)_3" fill-rule="evenodd" clip-rule="evenodd" d="M9.16797 1.70767C8.67022 1.32969 8.67007 1.32988 8.66992 1.33009L8.66956 1.33056L8.66868 1.33173L8.66624 1.33497L8.65869 1.3451C8.65249 1.35346 8.644 1.36502 8.63335 1.37975C8.61207 1.4092 8.58218 1.4513 8.54493 1.50568C8.47045 1.6144 8.36644 1.7723 8.24283 1.97629C7.99572 2.38406 7.66949 2.9773 7.34414 3.73109C6.69391 5.23759 6.04297 7.39552 6.04297 9.99986C6.04297 12.6042 6.69391 14.7621 7.34414 16.2686C7.66948 17.0224 7.99572 17.6157 8.24282 18.0234C8.36644 18.2274 8.47045 18.3853 8.54493 18.494C8.58218 18.5484 8.61206 18.5905 8.63335 18.62C8.64399 18.6347 8.65249 18.6463 8.65869 18.6546L8.66623 18.6647L8.66868 18.668L8.66956 18.6692L8.66992 18.6696C8.67007 18.6698 8.67021 18.67 9.16797 18.292L8.67021 18.67C8.87897 18.9449 9.27105 18.9986 9.54595 18.7898C9.82074 18.5811 9.87443 18.1893 9.66596 17.9144L9.66572 17.9141L9.6629 17.9103L9.64643 17.8877C9.6311 17.8665 9.60727 17.833 9.57616 17.7876C9.51392 17.6967 9.42262 17.5584 9.31186 17.3756C9.09021 17.0098 8.79145 16.4675 8.4918 15.7733C7.89203 14.3837 7.29297 12.3955 7.29297 9.99986C7.29297 7.6042 7.89203 5.61603 8.4918 4.22644C8.79145 3.53219 9.09021 2.98988 9.31186 2.62411C9.42262 2.44133 9.51392 2.30298 9.57616 2.21212C9.60727 2.16671 9.6311 2.1332 9.64643 2.11198L9.66291 2.08944L9.66596 2.08533C9.66585 2.08549 9.66572 2.08565 9.16797 1.70767Z" fill="currentColor"/>
<path id="Vector (Stroke)_4" fill-rule="evenodd" clip-rule="evenodd" d="M1.57031 12.9165C1.57031 12.5713 1.85013 12.2915 2.19531 12.2915H17.8126C18.1578 12.2915 18.4376 12.5713 18.4376 12.9165C18.4376 13.2617 18.1578 13.5415 17.8126 13.5415H2.19531C1.85013 13.5415 1.57031 13.2617 1.57031 12.9165Z" fill="currentColor"/>
<path id="Vector (Stroke)_5" fill-rule="evenodd" clip-rule="evenodd" d="M1.57031 7.0835C1.57031 6.73832 1.85013 6.4585 2.19531 6.4585H17.8126C18.1578 6.4585 18.4376 6.73832 18.4376 7.0835C18.4376 7.42867 18.1578 7.7085 17.8126 7.7085H2.19531C1.85013 7.7085 1.57031 7.42867 1.57031 7.0835Z" fill="currentColor"/>
</g>
</svg>
