<svg width="32" height="32" viewBox="0 0 32 32" fill="none" xmlns="http://www.w3.org/2000/svg">
<g id="link-xmark">
<path id="Ellipse" d="M18.668 15.997C18.668 12.6747 15.5787 9.3335 11.8108 9.3335C11.3645 9.3335 9.89335 9.3335 9.52511 9.3335C5.73802 9.3335 2.66797 12.3169 2.66797 15.997C2.66797 19.1682 4.94761 21.822 8.0013 22.4954C8.49138 22.6034 9.00139 22.6605 9.52511 22.6605" stroke="#F87171" stroke-width="2" stroke-linecap="round" stroke-linejoin="round"/>
<path id="Ellipse_2" d="M22.4749 9.33344C22.9986 9.33344 23.5086 9.39049 23.9987 9.49856C27.0524 10.1719 29.332 12.8257 29.332 15.9969C29.332 17.9195 28.4941 19.6519 27.1538 20.8682" stroke="#F87171" stroke-width="2" stroke-linecap="round" stroke-linejoin="round"/>
<path id="Ellipse_3" d="M13.3304 15.9967C13.3304 19.319 16.4196 22.6602 20.1875 22.6602" stroke="#F87171" stroke-width="2" stroke-linecap="round" stroke-linejoin="round"/>
<path id="Vector 6" d="M24 29.6569L26.8284 26.8284M26.8284 26.8284L29.6569 24M26.8284 26.8284L24 24M26.8284 26.8284L29.6569 29.6569" stroke="#F87171" stroke-width="2" stroke-linecap="round" stroke-linejoin="round"/>
</g>
</svg>
