<svg  viewBox="0 0 50 51" fill="none" xmlns="http://www.w3.org/2000/svg">
<path fill-rule="evenodd" clip-rule="evenodd" d="M5.50508 44.9938C4.90598 44.3947 4.90598 43.4234 5.50508 42.8243L25.9596 22.3698C26.5587 21.7707 27.5301 21.7707 28.1292 22.3698C28.7283 22.9689 28.7283 23.9402 28.1292 24.5393L7.67461 44.9938C7.07551 45.5929 6.10418 45.5929 5.50508 44.9938ZM31.0733 19.4257C30.4742 18.8266 30.4742 17.8552 31.0733 17.2561L36.1869 12.1425C36.786 11.5434 37.7573 11.5434 38.3564 12.1425C38.9555 12.7416 38.9555 13.7129 38.3564 14.312L33.2428 19.4257C32.6437 20.0248 31.6724 20.0248 31.0733 19.4257Z" fill="#F1B500"/>
<path fill-rule="evenodd" clip-rule="evenodd" d="M19.8865 3.51147C20.5285 3.51147 21.1025 3.91115 21.3253 4.51318L23.0141 9.0771L27.578 10.7659C28.18 10.9887 28.5797 11.5627 28.5797 12.2047C28.5797 12.8466 28.18 13.4206 27.578 13.6434L23.0141 15.3322L21.3253 19.8961C21.1025 20.4982 20.5285 20.8978 19.8865 20.8978C19.2446 20.8978 18.6706 20.4982 18.4478 19.8961L16.759 15.3322L12.1951 13.6434C11.593 13.4206 11.1934 12.8466 11.1934 12.2047C11.1934 11.5627 11.593 10.9887 12.1951 10.7659L16.759 9.0771L18.4478 4.51318C18.6706 3.91115 19.2446 3.51147 19.8865 3.51147ZM19.8865 9.46611L19.3917 10.8034C19.2363 11.2233 18.9052 11.5544 18.4853 11.7098L17.148 12.2047L18.4853 12.6995C18.9052 12.8549 19.2363 13.186 19.3917 13.6059L19.8865 14.9432L20.3814 13.6059C20.5368 13.186 20.8679 12.8549 21.2878 12.6995L22.6251 12.2047L21.2878 11.7098C20.8679 11.5544 20.5368 11.2233 20.3814 10.8034L19.8865 9.46611Z" fill="#F1B500"/>
<path fill-rule="evenodd" clip-rule="evenodd" d="M39.3203 19.8748C39.9622 19.8748 40.5363 20.2744 40.7591 20.8765L41.6192 23.2009L43.9436 24.061C44.5456 24.2838 44.9453 24.8578 44.9453 25.4998C44.9453 26.1417 44.5456 26.7157 43.9436 26.9385L41.6192 27.7986L40.7591 30.123C40.5363 30.7251 39.9622 31.1248 39.3203 31.1248C38.6784 31.1248 38.1043 30.7251 37.8816 30.123L37.0214 27.7986L34.697 26.9385C34.095 26.7157 33.6953 26.1417 33.6953 25.4998C33.6953 24.8578 34.095 24.2838 34.697 24.061L37.0214 23.2009L37.8816 20.8765C38.1043 20.2744 38.6784 19.8748 39.3203 19.8748ZM39.3203 25.4591C39.307 25.4729 39.2934 25.4864 39.2796 25.4998C39.2934 25.5131 39.307 25.5266 39.3203 25.5404C39.3336 25.5266 39.3472 25.5131 39.361 25.4998C39.3472 25.4864 39.3336 25.4729 39.3203 25.4591Z" fill="#F1B500"/>
</svg>
