<svg  viewBox="0 0 50 51" fill="none" xmlns="http://www.w3.org/2000/svg">
<path fill-rule="evenodd" clip-rule="evenodd" d="M41.8768 7.68917L30.6268 14.1177V28.7008L41.8768 35.1294V7.68917ZM27.5586 28.057V14.7616H14.7745C11.1031 14.7616 8.12678 17.7378 8.12678 21.4093C8.12678 25.0807 11.1031 28.057 14.7745 28.057H27.5586ZM28.6853 11.6934L40.8136 4.76293C42.6544 3.711 44.945 5.04023 44.945 7.16046V35.6581C44.945 37.7784 42.6544 39.1076 40.8136 38.0556L28.6853 31.1252H14.7745C9.40855 31.1252 5.05859 26.7752 5.05859 21.4093C5.05859 16.0433 9.40855 11.6934 14.7745 11.6934H28.6853Z" fill="#F1B500"/>
<path fill-rule="evenodd" clip-rule="evenodd" d="M13.0059 28.0569H24.287L25.8603 39.0697C26.3408 42.4336 23.7306 45.4432 20.3325 45.4432C17.5537 45.4432 15.1977 43.3999 14.8047 40.649L13.0059 28.0569ZM16.5435 31.1251L17.8421 40.2151C18.0191 41.4545 19.0806 42.3751 20.3325 42.3751C21.8634 42.3751 23.0394 41.0191 22.8229 39.5036L21.626 31.1251H16.5435Z" fill="#F1B500"/>
</svg>
