<svg width="180" height="180" viewBox="0 0 180 180" fill="none" xmlns="http://www.w3.org/2000/svg">
<g clip-path="url(#clip0_348_14334)">
<g opacity="0.2">
<line x1="11.9652" y1="-23" x2="11.9652" y2="203" stroke="#4F4F4F" stroke-width="0.559406"/>
<line x1="34.3383" y1="-23" x2="34.3383" y2="203" stroke="#4F4F4F" stroke-width="0.559406"/>
<line x1="56.7152" y1="-23" x2="56.7152" y2="203" stroke="#4F4F4F" stroke-width="0.559406"/>
<line x1="79.0922" y1="-23" x2="79.0922" y2="203" stroke="#4F4F4F" stroke-width="0.559406"/>
<line x1="101.467" y1="-23" x2="101.467" y2="203" stroke="#4F4F4F" stroke-width="0.559406"/>
<line x1="123.844" y1="-23" x2="123.844" y2="203" stroke="#4F4F4F" stroke-width="0.559406"/>
<line x1="146.221" y1="-23" x2="146.221" y2="203" stroke="#4F4F4F" stroke-width="0.559406"/>
<line x1="168.594" y1="-23" x2="168.594" y2="203" stroke="#4F4F4F" stroke-width="0.559406"/>
</g>
<line opacity="0.2" x1="-23" y1="168.037" x2="203" y2="168.037" stroke="#4F4F4F" stroke-width="0.559406"/>
<line opacity="0.2" x1="-23" y1="145.661" x2="203" y2="145.661" stroke="#4F4F4F" stroke-width="0.559406"/>
<line opacity="0.2" x1="-23" y1="123.285" x2="203" y2="123.285" stroke="#4F4F4F" stroke-width="0.559406"/>
<line opacity="0.2" x1="-23" y1="100.908" x2="203" y2="100.908" stroke="#4F4F4F" stroke-width="0.559406"/>
<line opacity="0.2" x1="-23" y1="78.5323" x2="203" y2="78.5323" stroke="#4F4F4F" stroke-width="0.559406"/>
<line opacity="0.2" x1="-23" y1="56.1558" x2="203" y2="56.1559" stroke="#4F4F4F" stroke-width="0.559406"/>
<line opacity="0.2" x1="-23" y1="33.7794" x2="203" y2="33.7794" stroke="#4F4F4F" stroke-width="0.559406"/>
<line opacity="0.2" x1="-23" y1="11.4034" x2="203" y2="11.4034" stroke="#4F4F4F" stroke-width="0.559406"/>
<circle cx="90" cy="90" r="98" fill="url(#paint0_radial_348_14334)"/>
<mask id="path-19-inside-1_348_14334" fill="white">
<path fill-rule="evenodd" clip-rule="evenodd" d="M23.5469 60.0092C28.7178 60.0085 32.9094 55.8165 32.9094 50.6454C32.9094 50.1335 32.8684 49.6312 32.7893 49.1417L145.375 49.1417C145.296 49.6312 145.255 50.1335 145.255 50.6454C145.255 52.2615 145.664 53.7819 146.385 55.1087C146.457 55.2414 146.532 55.3721 146.61 55.5008C148.253 58.2041 151.225 60.0099 154.619 60.0099C155.248 60.0099 155.863 59.9479 156.457 59.8295V61.8026C155.341 62.4188 154.585 63.6077 154.585 64.9732C154.585 66.3388 155.341 67.5277 156.457 68.1439V70.2594C155.341 70.8756 154.584 72.0645 154.584 73.4302C154.584 74.7958 155.341 75.9847 156.457 76.6009V78.7167C155.341 79.3329 154.584 80.5218 154.584 81.8875C154.584 83.2531 155.341 84.442 156.457 85.0582V87.1738C155.341 87.79 154.585 88.9789 154.585 90.3445C154.585 91.71 155.341 92.8989 156.457 93.5151V95.6307C155.341 96.2469 154.584 97.4358 154.584 98.8015C154.584 100.167 155.341 101.356 156.457 101.972V104.088C155.341 104.704 154.584 105.893 154.584 107.259C154.584 108.624 155.341 109.813 156.457 110.429V112.545C155.341 113.161 154.585 114.35 154.585 115.716C154.585 117.081 155.341 118.27 156.457 118.886V121.739C156.365 121.72 156.271 121.703 156.178 121.687C155.671 121.602 155.15 121.558 154.619 121.558C149.468 121.558 145.289 125.717 145.255 130.859H32.9092C32.8755 125.717 28.6969 121.559 23.5469 121.558V118.391C24.2729 117.729 24.7285 116.776 24.7285 115.716C24.7285 114.656 24.2729 113.702 23.5469 113.041V109.934C24.2729 109.272 24.7285 108.318 24.7285 107.259C24.7285 106.199 24.2729 105.245 23.5469 104.584L23.5469 101.477C24.2729 100.815 24.7285 99.8614 24.7285 98.8016C24.7285 97.7417 24.2729 96.7883 23.5469 96.1264V93.0196C24.2729 92.3577 24.7285 91.4043 24.7285 90.3445C24.7285 89.2847 24.2729 88.3312 23.5469 87.6694V84.5625C24.2729 83.9007 24.7285 82.9472 24.7285 81.8874C24.7285 80.8276 24.2729 79.8741 23.5469 79.2123V76.1054C24.2729 75.4436 24.7285 74.4902 24.7285 73.4303C24.7285 72.3705 24.2729 71.4171 23.5469 70.7552V67.6484C24.2729 66.9865 24.7285 66.0331 24.7285 64.9732C24.7285 63.9134 24.2729 62.96 23.5469 62.2981V60.0092Z"/>
</mask>
<path d="M23.5469 60.0092L23.5467 58.7899L22.3277 58.7901V60.0092H23.5469ZM32.7893 49.1417V47.9225H31.3575L31.5857 49.336L32.7893 49.1417ZM145.375 49.1417L146.579 49.336L146.807 47.9225H145.375V49.1417ZM146.385 55.1087L145.314 55.6907L145.314 55.6907L146.385 55.1087ZM146.61 55.5008L147.652 54.8678L147.652 54.8678L146.61 55.5008ZM156.457 59.8295H157.677V58.3437L156.219 58.6338L156.457 59.8295ZM156.457 61.8026L157.047 62.8701L157.677 62.5223V61.8026H156.457ZM156.457 68.1439H157.677V67.4242L157.047 67.0764L156.457 68.1439ZM156.457 70.2594L157.046 71.3269L157.677 70.9792V70.2594H156.457ZM156.457 76.6009H157.677V75.8812L157.046 75.5334L156.457 76.6009ZM156.457 78.7167L157.046 79.7842L157.677 79.4365V78.7167H156.457ZM156.457 85.0582H157.677V84.3384L157.046 83.9907L156.457 85.0582ZM156.457 87.1738L157.047 88.2413L157.677 87.8936V87.1738H156.457ZM156.457 93.5151H157.677V92.7954L157.047 92.4477L156.457 93.5151ZM156.457 95.6307L157.046 96.6982L157.677 96.3505V95.6307H156.457ZM156.457 101.972H157.677V101.252L157.046 100.905L156.457 101.972ZM156.457 104.088L157.046 105.155L157.677 104.808V104.088H156.457ZM156.457 110.429H157.677V109.71L157.046 109.362L156.457 110.429ZM156.457 112.545L157.047 113.613L157.677 113.265V112.545H156.457ZM156.457 118.886H157.677V118.167L157.047 117.819L156.457 118.886ZM156.457 121.739L156.219 122.934L157.677 123.224V121.739H156.457ZM156.178 121.687L156.379 120.485V120.485L156.178 121.687ZM145.255 130.859V132.078H146.466L146.474 130.867L145.255 130.859ZM32.9092 130.859L31.69 130.867L31.698 132.078H32.9092V130.859ZM23.5469 121.558H22.3277V122.777L23.5467 122.777L23.5469 121.558ZM23.5469 118.391L22.7255 117.49L22.3277 117.853V118.391H23.5469ZM23.5469 113.041H22.3277V113.579L22.7255 113.942L23.5469 113.041ZM23.5469 109.934L22.7255 109.033L22.3277 109.395V109.934H23.5469ZM23.5469 104.584H22.3277V105.122L22.7255 105.485L23.5469 104.584ZM23.5469 101.477L22.7255 100.576L22.3277 100.938V101.477H23.5469ZM23.5469 96.1264H22.3277V96.6648L22.7255 97.0274L23.5469 96.1264ZM23.5469 93.0196L22.7255 92.1186L22.3277 92.4813V93.0196H23.5469ZM23.5469 87.6694H22.3277V88.2077L22.7255 88.5704L23.5469 87.6694ZM23.5469 84.5625L22.7255 83.6615L22.3277 84.0242V84.5625H23.5469ZM23.5469 79.2123H22.3277V79.7506L22.7255 80.1133L23.5469 79.2123ZM23.5469 76.1054L22.7255 75.2044L22.3277 75.5671V76.1054H23.5469ZM23.5469 70.7552H22.3277V71.2935L22.7255 71.6562L23.5469 70.7552ZM23.5469 67.6484L22.7255 66.7474L22.3277 67.11V67.6484H23.5469ZM23.5469 62.2981H22.3277V62.8365L22.7255 63.1991L23.5469 62.2981ZM31.6902 50.6454C31.6902 55.1432 28.0443 58.7894 23.5467 58.7899L23.547 61.2284C29.3912 61.2276 34.1286 56.4898 34.1286 50.6454H31.6902ZM31.5857 49.336C31.6544 49.7615 31.6902 50.1988 31.6902 50.6454H34.1286C34.1286 50.0682 34.0823 49.5009 33.993 48.9474L31.5857 49.336ZM145.375 47.9225L32.7893 47.9225V50.3609L145.375 50.3609V47.9225ZM146.474 50.6454C146.474 50.1988 146.51 49.7615 146.579 49.336L144.171 48.9474C144.082 49.5009 144.036 50.0682 144.036 50.6454H146.474ZM147.456 54.5267C146.83 53.3741 146.474 52.0532 146.474 50.6454H144.036C144.036 52.4698 144.498 54.1898 145.314 55.6907L147.456 54.5267ZM147.652 54.8678C147.584 54.7558 147.519 54.6421 147.456 54.5267L145.314 55.6907C145.395 55.8407 145.48 55.9885 145.568 56.1339L147.652 54.8678ZM154.619 58.7907C151.668 58.7907 149.083 57.2223 147.652 54.8678L145.568 56.1339C147.423 59.1859 150.782 61.2291 154.619 61.2291V58.7907ZM156.219 58.6338C155.703 58.7366 155.168 58.7907 154.619 58.7907V61.2291C155.329 61.2291 156.023 61.1591 156.696 61.0253L156.219 58.6338ZM157.677 61.8026V59.8295H155.238V61.8026H157.677ZM155.804 64.9732C155.804 64.0694 156.303 63.2804 157.047 62.8701L155.868 60.7351C154.379 61.5572 153.365 63.146 153.365 64.9732H155.804ZM157.047 67.0764C156.303 66.6661 155.804 65.8771 155.804 64.9732H153.365C153.365 66.8005 154.379 68.3893 155.868 69.2113L157.047 67.0764ZM157.677 70.2594V68.1439H155.238V70.2594H157.677ZM155.804 73.4302C155.804 72.5262 156.303 71.7372 157.046 71.3269L155.868 69.1919C154.379 70.014 153.365 71.6028 153.365 73.4302H155.804ZM157.046 75.5334C156.303 75.1231 155.804 74.3341 155.804 73.4302H153.365C153.365 75.2575 154.379 76.8464 155.868 77.6684L157.046 75.5334ZM157.677 78.7167V76.6009H155.238V78.7167H157.677ZM155.804 81.8875C155.804 80.9835 156.303 80.1945 157.046 79.7842L155.868 77.6492C154.379 78.4712 153.365 80.0601 153.365 81.8875H155.804ZM157.046 83.9907C156.303 83.5804 155.804 82.7914 155.804 81.8875H153.365C153.365 83.7148 154.379 85.3037 155.868 86.1257L157.046 83.9907ZM157.677 87.1738V85.0582H155.238V87.1738H157.677ZM155.804 90.3445C155.804 89.4406 156.303 88.6516 157.047 88.2413L155.868 86.1064C154.379 86.9284 153.365 88.5173 153.365 90.3445H155.804ZM157.047 92.4477C156.303 92.0373 155.804 91.2484 155.804 90.3445H153.365C153.365 92.1717 154.379 93.7605 155.868 94.5826L157.047 92.4477ZM157.677 95.6307V93.5151H155.238V95.6307H157.677ZM155.804 98.8015C155.804 97.8975 156.303 97.1085 157.046 96.6982L155.868 94.5632C154.379 95.3852 153.365 96.9741 153.365 98.8015H155.804ZM157.046 100.905C156.303 100.494 155.804 99.7054 155.804 98.8015H153.365C153.365 100.629 154.379 102.218 155.868 103.04L157.046 100.905ZM157.677 104.088V101.972H155.238V104.088H157.677ZM155.804 107.259C155.804 106.355 156.303 105.566 157.046 105.155L155.868 103.021C154.379 103.843 153.365 105.431 153.365 107.259H155.804ZM157.046 109.362C156.303 108.952 155.804 108.163 155.804 107.259H153.365C153.365 109.086 154.379 110.675 155.868 111.497L157.046 109.362ZM157.677 112.545V110.429H155.238V112.545H157.677ZM155.804 115.716C155.804 114.812 156.303 114.023 157.047 113.613L155.868 111.478C154.379 112.3 153.365 113.889 153.365 115.716L155.804 115.716ZM157.047 117.819C156.303 117.409 155.804 116.62 155.804 115.716L153.365 115.716C153.365 117.543 154.379 119.132 155.868 119.954L157.047 117.819ZM157.677 121.739V118.886H155.238V121.739H157.677ZM155.976 122.89C156.058 122.903 156.139 122.918 156.219 122.934L156.696 120.543C156.591 120.522 156.485 120.503 156.379 120.485L155.976 122.89ZM154.619 122.777C155.082 122.777 155.535 122.816 155.976 122.89L156.379 120.485C155.806 120.389 155.218 120.339 154.619 120.339V122.777ZM146.474 130.867C146.504 126.394 150.139 122.777 154.619 122.777V120.339C148.797 120.339 144.074 125.039 144.036 130.851L146.474 130.867ZM32.9092 132.078H145.255V129.64H32.9092V132.078ZM23.5467 122.777C28.0261 122.778 31.6607 126.395 31.69 130.867L34.1284 130.851C34.0903 125.039 29.3676 120.34 23.547 120.339L23.5467 122.777ZM22.3277 118.391V121.558H24.7661V118.391H22.3277ZM23.5093 115.716C23.5093 116.418 23.2088 117.049 22.7255 117.49L24.3683 119.292C25.337 118.409 25.9477 117.133 25.9477 115.716H23.5093ZM22.7255 113.942C23.2088 114.382 23.5093 115.013 23.5093 115.716H25.9477C25.9477 114.299 25.337 113.023 24.3683 112.14L22.7255 113.942ZM22.3277 109.934V113.041H24.7661V109.934H22.3277ZM23.5093 107.259C23.5093 107.961 23.2088 108.592 22.7255 109.033L24.3683 110.835C25.337 109.952 25.9477 108.676 25.9477 107.259H23.5093ZM22.7255 105.485C23.2088 105.925 23.5093 106.556 23.5093 107.259H25.9477C25.9477 105.842 25.337 104.566 24.3683 103.683L22.7255 105.485ZM22.3277 101.477V104.584H24.7661V101.477H22.3277ZM23.5093 98.8016C23.5093 99.5043 23.2088 100.135 22.7255 100.576L24.3683 102.378C25.337 101.495 25.9477 100.218 25.9477 98.8016H23.5093ZM22.7255 97.0274C23.2088 97.468 23.5093 98.0988 23.5093 98.8016H25.9477C25.9477 97.3846 25.337 96.1086 24.3683 95.2255L22.7255 97.0274ZM22.3277 93.0196V96.1264H24.7661V93.0196H22.3277ZM23.5093 90.3445C23.5093 91.0472 23.2088 91.678 22.7255 92.1186L24.3683 93.9206C25.337 93.0374 25.9477 91.7614 25.9477 90.3445H23.5093ZM22.7255 88.5704C23.2088 89.0109 23.5093 89.6418 23.5093 90.3445H25.9477C25.9477 88.9276 25.337 87.6515 24.3683 86.7684L22.7255 88.5704ZM22.3277 84.5625V87.6694H24.7661V84.5625H22.3277ZM23.5093 81.8874C23.5093 82.5901 23.2088 83.2209 22.7255 83.6615L24.3683 85.4635C25.337 84.5804 25.9477 83.3043 25.9477 81.8874H23.5093ZM22.7255 80.1133C23.2088 80.5539 23.5093 81.1847 23.5093 81.8874H25.9477C25.9477 80.4705 25.337 79.1944 24.3683 78.3113L22.7255 80.1133ZM22.3277 76.1054V79.2123H24.7661V76.1054H22.3277ZM23.5093 73.4303C23.5093 74.1331 23.2088 74.7639 22.7255 75.2044L24.3683 77.0064C25.337 76.1233 25.9477 74.8473 25.9477 73.4303H23.5093ZM22.7255 71.6562C23.2088 72.0968 23.5093 72.7276 23.5093 73.4303H25.9477C25.9477 72.0134 25.337 70.7374 24.3683 69.8542L22.7255 71.6562ZM22.3277 67.6484V70.7552H24.7661V67.6484H22.3277ZM23.5093 64.9732C23.5093 65.676 23.2088 66.3068 22.7255 66.7474L24.3683 68.5494C25.337 67.6662 25.9477 66.3902 25.9477 64.9732H23.5093ZM22.7255 63.1991C23.2088 63.6397 23.5093 64.2705 23.5093 64.9732H25.9477C25.9477 63.5563 25.337 62.2803 24.3683 61.3971L22.7255 63.1991ZM22.3277 60.0092V62.2981H24.7661V60.0092H22.3277Z" fill="#F1B500" mask="url(#path-19-inside-1_348_14334)"/>
<rect x="41.2433" y="59.6354" width="96.3838" height="60.7306" rx="4.30547" stroke="#F1B500" stroke-width="0.892773"/>
<path d="M57.3535 59.571V120.812M123.895 59.571V120.812" stroke="#F1B500" stroke-width="0.892773"/>
<g clip-path="url(#clip1_348_14334)">
<path d="M95.33 92.7425L85.6959 97.789L81.2448 93.3378L86.2913 83.7038C87.7302 80.9566 90.4265 79.0912 93.5046 78.7132L100.075 77.9063C100.685 77.8314 101.202 78.3491 101.128 78.9585L100.321 85.5292C99.9426 88.6073 98.0772 91.3035 95.33 92.7425Z" stroke="#F1B500" stroke-width="1.25" stroke-linecap="round" stroke-linejoin="round"/>
<path d="M77.9087 96.6761C75.6832 98.9017 76.7959 102.24 76.7959 102.24C76.7959 102.24 80.1343 103.353 82.3598 101.127" stroke="#F1B500" stroke-width="1.25" stroke-linecap="round" stroke-linejoin="round"/>
<path d="M84.5854 86.6613C77.9087 85.5485 75.6832 92.2251 75.6832 92.2251L81.247 93.3379" stroke="#F1B500" stroke-width="1.25" stroke-linecap="round" stroke-linejoin="round"/>
<path d="M92.8534 94.931C93.9662 101.608 87.2895 103.833 87.2895 103.833L86.1767 98.2693" stroke="#F1B500" stroke-width="1.25" stroke-linecap="round" stroke-linejoin="round"/>
<path d="M90.1476 88.8867C88.9184 87.6575 88.9184 85.6647 90.1476 84.4356C91.3767 83.2064 93.3695 83.2064 94.5987 84.4356C95.8278 85.6647 95.8278 87.6575 94.5987 88.8867C93.3695 90.1158 91.3767 90.1158 90.1476 88.8867Z" stroke="#F1B500" stroke-width="1.25" stroke-linecap="round" stroke-linejoin="round"/>
</g>
</g>
<defs>
<radialGradient id="paint0_radial_348_14334" cx="0" cy="0" r="1" gradientUnits="userSpaceOnUse" gradientTransform="translate(90 90) rotate(90) scale(98)">
<stop stop-color="#FAFAF9" stop-opacity="0"/>
<stop offset="1" stop-color="#FAFAF9"/>
</radialGradient>
<clipPath id="clip0_348_14334">
<rect width="180" height="180" rx="90" fill="white"/>
</clipPath>
<clipPath id="clip1_348_14334">
<rect width="37.7689" height="37.7689" fill="white" transform="translate(89.0352 63.293) rotate(45)"/>
</clipPath>
</defs>
</svg>
