<svg  viewBox="0 0 40 40" fill="currentColor" xmlns="http://www.w3.org/2000/svg">
<path fill-rule="evenodd" clip-rule="evenodd" d="M27.3204 13.02C28.7505 14.5006 31.1102 14.5415 32.5907 13.1114L32.5915 13.1106L35.4399 16.0594C36.1073 16.7504 36.0882 17.8515 35.3973 18.5189L18.7314 34.6171C18.0405 35.2845 16.9393 35.2655 16.2719 34.5745L13.4233 31.6255C14.9034 30.1953 14.9441 27.836 13.5141 26.3556C12.0841 24.8752 9.7249 24.8342 8.24428 26.2638L5.39591 23.315C4.72851 22.624 4.74759 21.5229 5.43853 20.8555L22.1044 4.75727C22.7953 4.08987 23.8965 4.10895 24.5639 4.79989L27.4125 7.74891L27.4117 7.74968C25.9311 9.17984 25.8902 11.5395 27.3204 13.02ZM19.0636 10.3721C18.8253 10.1254 18.432 10.1185 18.1852 10.3569C17.9385 10.5953 17.9317 10.9885 18.17 11.2353L19.0548 12.1513C19.2931 12.398 19.6864 12.4048 19.9332 12.1665C20.1799 11.9281 20.1867 11.5348 19.9484 11.2881L19.0636 10.3721ZM21.7179 13.12C21.4795 12.8732 21.0863 12.8664 20.8395 13.1048C20.5927 13.3431 20.5859 13.7364 20.8243 13.9832L22.5938 15.8151C22.8321 16.0618 23.2254 16.0686 23.4722 15.8303C23.7189 15.5919 23.7258 15.1987 23.4874 14.9519L21.7179 13.12ZM25.2569 16.7838C25.0185 16.537 24.6253 16.5302 24.3785 16.7686C24.1317 17.0069 24.1249 17.4002 24.3633 17.647L26.1328 19.4789C26.3712 19.7256 26.7644 19.7325 27.0112 19.4941C27.258 19.2557 27.2648 18.8625 27.0264 18.6157L25.2569 16.7838ZM28.7959 20.4476C28.5576 20.2008 28.1643 20.194 27.9175 20.4324C27.6708 20.6708 27.664 21.064 27.9023 21.3108L28.7871 22.2267C29.0254 22.4735 29.4187 22.4803 29.6655 22.242C29.9122 22.0036 29.919 21.6103 29.6807 21.3636L28.7959 20.4476Z" fill="currentColor"/>
</svg>
