<svg  viewBox="0 0 50 51" fill="none" xmlns="http://www.w3.org/2000/svg">
<path d="M33.1525 22.7265L29.0897 35.7275L20.9079 35.7275L16.845 22.7265C15.5466 18.5714 16.3712 14.0435 19.0513 10.6129L23.9543 4.33719C24.4849 3.65793 25.5126 3.65793 26.0432 4.33719L30.9462 10.6129C33.6263 14.0435 34.451 18.5714 33.1525 22.7265Z" stroke="currentColor" stroke-width="3.31364" stroke-linecap="round" stroke-linejoin="round"/>
<path d="M20.9139 41.8639C20.9139 45.9548 25.0048 48.0002 25.0048 48.0002C25.0048 48.0002 29.0957 45.9548 29.0957 41.8639" stroke="currentColor" stroke-width="3.31364" stroke-linecap="round" stroke-linejoin="round"/>
<path d="M17.8381 26.5227C10.679 31.6363 14.7699 39.8181 14.7699 39.8181L20.9062 35.7272" stroke="currentColor" stroke-width="3.31364" stroke-linecap="round" stroke-linejoin="round"/>
<path d="M33.0447 26.5227C40.2038 31.6363 36.1129 39.8181 36.1129 39.8181L29.9766 35.7272" stroke="currentColor" stroke-width="3.31364" stroke-linecap="round" stroke-linejoin="round"/>
<path d="M25.0048 23.4545C22.7454 23.4545 20.9139 21.623 20.9139 19.3636C20.9139 17.1043 22.7454 15.2727 25.0048 15.2727C27.2641 15.2727 29.0957 17.1043 29.0957 19.3636C29.0957 21.623 27.2641 23.4545 25.0048 23.4545Z" stroke="currentColor" stroke-width="3.31364" stroke-linecap="round" stroke-linejoin="round"/>
</svg>
