<svg width="40" height="39" viewBox="0 0 40 39" fill="none" xmlns="http://www.w3.org/2000/svg">
<g clip-path="url(#clip0_348_14173)">
<path d="M18.8893 10.6397L19.6727 12.8276L10.6868 15.1923L9.651 10.6074L14.4254 9.42056L18.8893 10.6397Z" stroke="currentColor" stroke-width="0.5"/>
<path d="M15.0854 32.4864L13.8137 28.1762L22.8032 25.8103L23.235 28.1409L19.8647 31.2983L15.0854 32.4864Z" stroke="currentColor" stroke-width="0.5"/>
<path d="M1.79883 24.2769L9.10481 22.3047L9.26302 22.9957L1.95704 24.9679L1.79883 24.2769Z" fill="currentColor"/>
<path d="M1.87695 24.519L9.49882 22.6242L9.61017 23.0721L1.9883 24.9669L1.87695 24.519Z" fill="currentColor"/>
<path d="M5.9668 25.0356L9.80397 23.9998L10.0163 24.9273L6.17914 25.9631L5.9668 25.0356Z" fill="currentColor"/>
<path d="M5 21.0356L8.83698 19.9999L8.97018 20.5817L5.1332 21.6175L5 21.0356Z" fill="currentColor"/>
<path d="M12.4197 15.6661L15.1704 26.7314L13.7298 28.0809L10.4667 27.5374L7.86423 17.0683L10.5111 15.1472L12.4197 15.6661Z" stroke="currentColor" stroke-width="0.5"/>
<path d="M32.7046 21.8537L32.8483 22.0582L32.7046 21.8537C30.3731 23.4929 27.6889 24.6917 24.9434 25.3209L24.9434 25.3208L24.9389 25.3219L13.9913 28.0434L10.7624 15.0555L21.7107 12.3339L21.7107 12.3339L21.7148 12.3328C26.7483 10.9902 31.0565 11.6444 34.1435 12.6472C35.6873 13.1487 36.9253 13.7372 37.7947 14.2066C38.2293 14.4412 38.5719 14.6461 38.8152 14.7957C38.895 14.8448 38.9626 14.887 39.0206 14.9232C39.0224 14.9243 39.0241 14.9254 39.0258 14.9265C39.0035 14.9641 38.9792 15.0053 38.9529 15.0499C38.3171 16.1267 36.5196 19.1716 32.7046 21.8537Z" stroke="currentColor" stroke-width="0.5"/>
<path d="M26.7077 15.4477L26.7076 15.4477C24.0294 13.8383 20.7838 16.2976 21.5247 19.2777C21.989 21.1448 23.8843 22.2862 25.7486 21.8228C25.7486 21.8228 25.7486 21.8228 25.7486 21.8228M26.7077 15.4477L26.8364 15.2334C29.6877 16.9464 29.023 21.2664 25.8089 22.0654L25.7486 21.8228M26.7077 15.4477C29.3665 17.0451 28.7481 21.0771 25.7486 21.8228M26.7077 15.4477L25.7486 21.8228" stroke="currentColor" stroke-width="0.5"/>
</g>
<defs>
<clipPath id="clip0_348_14173">
<rect width="28" height="28" fill="white" transform="translate(15.3867 0.398438) rotate(31.0393)"/>
</clipPath>
</defs>
</svg>
