<svg width="653" height="296" viewBox="0 0 653 296" fill="none" xmlns="http://www.w3.org/2000/svg">
<g opacity="0.3">
<g opacity="0.2">
<line x1="195.28" y1="-43" x2="195.28" y2="183" stroke="black" stroke-width="0.559406"/>
<line x1="217.659" y1="-43" x2="217.659" y2="183" stroke="black" stroke-width="0.559406"/>
<line x1="240.032" y1="-43" x2="240.032" y2="183" stroke="black" stroke-width="0.559406"/>
<line x1="262.409" y1="-43" x2="262.409" y2="183" stroke="black" stroke-width="0.559406"/>
<line x1="284.786" y1="-43" x2="284.786" y2="183" stroke="black" stroke-width="0.559406"/>
<line x1="307.161" y1="-43" x2="307.161" y2="183" stroke="black" stroke-width="0.559406"/>
<line x1="329.538" y1="-43" x2="329.538" y2="183" stroke="black" stroke-width="0.559406"/>
<line x1="351.914" y1="-43" x2="351.914" y2="183" stroke="black" stroke-width="0.559406"/>
<line x1="374.288" y1="-43" x2="374.288" y2="183" stroke="black" stroke-width="0.559406"/>
<line x1="374.288" y1="-43" x2="374.288" y2="183" stroke="black" stroke-width="0.559406"/>
<line x1="374.288" y1="-43" x2="374.288" y2="183" stroke="black" stroke-width="0.559406"/>
<line x1="374.288" y1="-43" x2="374.288" y2="183" stroke="black" stroke-width="0.559406"/>
<line x1="374.288" y1="-43" x2="374.288" y2="183" stroke="black" stroke-width="0.559406"/>
<line x1="374.288" y1="-43" x2="374.288" y2="183" stroke="black" stroke-width="0.559406"/>
<line x1="374.288" y1="-43" x2="374.288" y2="183" stroke="black" stroke-width="0.559406"/>
<line x1="374.288" y1="-43" x2="374.288" y2="183" stroke="black" stroke-width="0.559406"/>
<line x1="374.288" y1="-43" x2="374.288" y2="183" stroke="black" stroke-width="0.559406"/>
<line x1="374.288" y1="-43" x2="374.288" y2="183" stroke="black" stroke-width="0.559406"/>
<line x1="374.288" y1="-43" x2="374.288" y2="183" stroke="black" stroke-width="0.559406"/>
<line x1="374.288" y1="-43" x2="374.288" y2="183" stroke="black" stroke-width="0.559406"/>
<line x1="374.288" y1="-43" x2="374.288" y2="183" stroke="black" stroke-width="0.559406"/>
<line x1="396.666" y1="-43" x2="396.666" y2="183" stroke="black" stroke-width="0.559406"/>
</g>
<line opacity="0.2" x1="-43" y1="169.72" x2="183" y2="169.72" stroke="black" stroke-width="0.559406"/>
<line opacity="0.2" x1="-43" y1="147.344" x2="183" y2="147.344" stroke="black" stroke-width="0.559406"/>
<line opacity="0.2" x1="-43" y1="124.968" x2="183" y2="124.968" stroke="black" stroke-width="0.559406"/>
<line opacity="0.2" x1="-43" y1="102.591" x2="183" y2="102.591" stroke="black" stroke-width="0.559406"/>
<line opacity="0.2" x1="-43" y1="80.2149" x2="183" y2="80.2149" stroke="black" stroke-width="0.559406"/>
<line opacity="0.2" x1="-43" y1="57.8389" x2="183" y2="57.839" stroke="black" stroke-width="0.559406"/>
<line opacity="0.2" x1="-43" y1="35.4625" x2="183" y2="35.4625" stroke="black" stroke-width="0.559406"/>
<line opacity="0.2" x1="-43" y1="13.086" x2="183" y2="13.086" stroke="black" stroke-width="0.559406"/>
<line opacity="0.2" x1="183" y1="169.72" x2="409" y2="169.72" stroke="black" stroke-width="0.559406"/>
<line opacity="0.2" x1="183" y1="147.344" x2="409" y2="147.344" stroke="black" stroke-width="0.559406"/>
<line opacity="0.2" x1="183" y1="124.968" x2="409" y2="124.968" stroke="black" stroke-width="0.559406"/>
<line opacity="0.2" x1="183" y1="102.591" x2="409" y2="102.591" stroke="black" stroke-width="0.559406"/>
<line opacity="0.2" x1="183" y1="80.2149" x2="409" y2="80.2149" stroke="black" stroke-width="0.559406"/>
<line opacity="0.2" x1="183" y1="57.8389" x2="409" y2="57.839" stroke="black" stroke-width="0.559406"/>
<line opacity="0.2" x1="183" y1="35.4625" x2="409" y2="35.4625" stroke="black" stroke-width="0.559406"/>
<line opacity="0.2" x1="183" y1="13.086" x2="409" y2="13.086" stroke="black" stroke-width="0.559406"/>
<g opacity="0.2">
<line x1="14.0317" y1="-43" x2="14.0316" y2="183" stroke="black" stroke-width="0.559406"/>
<line x1="36.4086" y1="-43" x2="36.4086" y2="183" stroke="black" stroke-width="0.559406"/>
<line x1="58.7856" y1="-43" x2="58.7856" y2="183" stroke="black" stroke-width="0.559406"/>
<line x1="81.1606" y1="-43" x2="81.1606" y2="183" stroke="black" stroke-width="0.559406"/>
<line x1="103.538" y1="-43" x2="103.538" y2="183" stroke="black" stroke-width="0.559406"/>
<line x1="125.914" y1="-43" x2="125.914" y2="183" stroke="black" stroke-width="0.559406"/>
<line x1="148.288" y1="-43" x2="148.288" y2="183" stroke="black" stroke-width="0.559406"/>
<line x1="148.288" y1="-43" x2="148.288" y2="183" stroke="black" stroke-width="0.559406"/>
<line x1="148.288" y1="-43" x2="148.288" y2="183" stroke="black" stroke-width="0.559406"/>
<line x1="148.288" y1="-43" x2="148.288" y2="183" stroke="black" stroke-width="0.559406"/>
<line x1="148.288" y1="-43" x2="148.288" y2="183" stroke="black" stroke-width="0.559406"/>
<line x1="148.288" y1="-43" x2="148.288" y2="183" stroke="black" stroke-width="0.559406"/>
<line x1="148.288" y1="-43" x2="148.288" y2="183" stroke="black" stroke-width="0.559406"/>
<line x1="148.288" y1="-43" x2="148.288" y2="183" stroke="black" stroke-width="0.559406"/>
<line x1="148.288" y1="-43" x2="148.288" y2="183" stroke="black" stroke-width="0.559406"/>
<line x1="148.288" y1="-43" x2="148.288" y2="183" stroke="black" stroke-width="0.559406"/>
<line x1="148.288" y1="-43" x2="148.288" y2="183" stroke="black" stroke-width="0.559406"/>
<line x1="148.288" y1="-43" x2="148.288" y2="183" stroke="black" stroke-width="0.559406"/>
<line x1="148.288" y1="-43" x2="148.288" y2="183" stroke="black" stroke-width="0.559406"/>
<line x1="170.666" y1="-43" x2="170.666" y2="183" stroke="black" stroke-width="0.559406"/>
</g>
</g>
<g opacity="0.3">
<g opacity="0.2">
<line x1="195.28" y1="183" x2="195.28" y2="409" stroke="black" stroke-width="0.559406"/>
<line x1="217.659" y1="183" x2="217.659" y2="409" stroke="black" stroke-width="0.559406"/>
<line x1="240.032" y1="183" x2="240.032" y2="409" stroke="black" stroke-width="0.559406"/>
<line x1="262.409" y1="183" x2="262.409" y2="409" stroke="black" stroke-width="0.559406"/>
<line x1="284.786" y1="183" x2="284.786" y2="409" stroke="black" stroke-width="0.559406"/>
<line x1="307.161" y1="183" x2="307.161" y2="409" stroke="black" stroke-width="0.559406"/>
<line x1="329.538" y1="183" x2="329.538" y2="409" stroke="black" stroke-width="0.559406"/>
<line x1="351.914" y1="183" x2="351.914" y2="409" stroke="black" stroke-width="0.559406"/>
<line x1="374.288" y1="183" x2="374.288" y2="409" stroke="black" stroke-width="0.559406"/>
<line x1="374.288" y1="183" x2="374.288" y2="409" stroke="black" stroke-width="0.559406"/>
<line x1="374.288" y1="183" x2="374.288" y2="409" stroke="black" stroke-width="0.559406"/>
<line x1="374.288" y1="183" x2="374.288" y2="409" stroke="black" stroke-width="0.559406"/>
<line x1="374.288" y1="183" x2="374.288" y2="409" stroke="black" stroke-width="0.559406"/>
<line x1="374.288" y1="183" x2="374.288" y2="409" stroke="black" stroke-width="0.559406"/>
<line x1="374.288" y1="183" x2="374.288" y2="409" stroke="black" stroke-width="0.559406"/>
<line x1="374.288" y1="183" x2="374.288" y2="409" stroke="black" stroke-width="0.559406"/>
<line x1="374.288" y1="183" x2="374.288" y2="409" stroke="black" stroke-width="0.559406"/>
<line x1="374.288" y1="183" x2="374.288" y2="409" stroke="black" stroke-width="0.559406"/>
<line x1="374.288" y1="183" x2="374.288" y2="409" stroke="black" stroke-width="0.559406"/>
<line x1="374.288" y1="183" x2="374.288" y2="409" stroke="black" stroke-width="0.559406"/>
<line x1="374.288" y1="183" x2="374.288" y2="409" stroke="black" stroke-width="0.559406"/>
<line x1="396.666" y1="183" x2="396.666" y2="409" stroke="black" stroke-width="0.559406"/>
</g>
<line opacity="0.2" x1="-43" y1="283.839" x2="183" y2="283.839" stroke="black" stroke-width="0.559406"/>
<line opacity="0.2" x1="-43" y1="261.462" x2="183" y2="261.462" stroke="black" stroke-width="0.559406"/>
<line opacity="0.2" x1="-43" y1="239.086" x2="183" y2="239.086" stroke="black" stroke-width="0.559406"/>
<line opacity="0.2" x1="-43" y1="216.71" x2="183" y2="216.71" stroke="black" stroke-width="0.559406"/>
<line opacity="0.2" x1="-43" y1="194.334" x2="183" y2="194.334" stroke="black" stroke-width="0.559406"/>
<line opacity="0.2" x1="183" y1="283.839" x2="409" y2="283.839" stroke="black" stroke-width="0.559406"/>
<line opacity="0.2" x1="183" y1="261.462" x2="409" y2="261.462" stroke="black" stroke-width="0.559406"/>
<line opacity="0.2" x1="183" y1="239.086" x2="409" y2="239.086" stroke="black" stroke-width="0.559406"/>
<line opacity="0.2" x1="183" y1="216.71" x2="409" y2="216.71" stroke="black" stroke-width="0.559406"/>
<line opacity="0.2" x1="183" y1="194.334" x2="409" y2="194.334" stroke="black" stroke-width="0.559406"/>
<g opacity="0.2">
<line x1="14.0317" y1="183" x2="14.0316" y2="409" stroke="black" stroke-width="0.559406"/>
<line x1="36.4086" y1="183" x2="36.4086" y2="409" stroke="black" stroke-width="0.559406"/>
<line x1="58.7856" y1="183" x2="58.7856" y2="409" stroke="black" stroke-width="0.559406"/>
<line x1="81.1606" y1="183" x2="81.1606" y2="409" stroke="black" stroke-width="0.559406"/>
<line x1="103.538" y1="183" x2="103.538" y2="409" stroke="black" stroke-width="0.559406"/>
<line x1="125.914" y1="183" x2="125.914" y2="409" stroke="black" stroke-width="0.559406"/>
<line x1="148.288" y1="183" x2="148.288" y2="409" stroke="black" stroke-width="0.559406"/>
<line x1="148.288" y1="183" x2="148.288" y2="409" stroke="black" stroke-width="0.559406"/>
<line x1="148.288" y1="183" x2="148.288" y2="409" stroke="black" stroke-width="0.559406"/>
<line x1="148.288" y1="183" x2="148.288" y2="409" stroke="black" stroke-width="0.559406"/>
<line x1="148.288" y1="183" x2="148.288" y2="409" stroke="black" stroke-width="0.559406"/>
<line x1="148.288" y1="183" x2="148.288" y2="409" stroke="black" stroke-width="0.559406"/>
<line x1="148.288" y1="183" x2="148.288" y2="409" stroke="black" stroke-width="0.559406"/>
<line x1="148.288" y1="183" x2="148.288" y2="409" stroke="black" stroke-width="0.559406"/>
<line x1="148.288" y1="183" x2="148.288" y2="409" stroke="black" stroke-width="0.559406"/>
<line x1="148.288" y1="183" x2="148.288" y2="409" stroke="black" stroke-width="0.559406"/>
<line x1="148.288" y1="183" x2="148.288" y2="409" stroke="black" stroke-width="0.559406"/>
<line x1="148.288" y1="183" x2="148.288" y2="409" stroke="black" stroke-width="0.559406"/>
<line x1="148.288" y1="183" x2="148.288" y2="409" stroke="black" stroke-width="0.559406"/>
<line x1="170.666" y1="183" x2="170.666" y2="409" stroke="black" stroke-width="0.559406"/>
</g>
</g>
<g opacity="0.3">
<g opacity="0.2">
<line x1="647.28" y1="-43" x2="647.28" y2="183" stroke="black" stroke-width="0.559406"/>
</g>
<line opacity="0.2" x1="409" y1="169.72" x2="635" y2="169.72" stroke="black" stroke-width="0.559406"/>
<line opacity="0.2" x1="409" y1="147.344" x2="635" y2="147.344" stroke="black" stroke-width="0.559406"/>
<line opacity="0.2" x1="409" y1="124.968" x2="635" y2="124.968" stroke="black" stroke-width="0.559406"/>
<line opacity="0.2" x1="409" y1="102.591" x2="635" y2="102.591" stroke="black" stroke-width="0.559406"/>
<line opacity="0.2" x1="409" y1="80.2149" x2="635" y2="80.2149" stroke="black" stroke-width="0.559406"/>
<line opacity="0.2" x1="409" y1="57.8389" x2="635" y2="57.839" stroke="black" stroke-width="0.559406"/>
<line opacity="0.2" x1="409" y1="35.4625" x2="635" y2="35.4625" stroke="black" stroke-width="0.559406"/>
<line opacity="0.2" x1="409" y1="13.086" x2="635" y2="13.086" stroke="black" stroke-width="0.559406"/>
<line opacity="0.2" x1="635" y1="169.72" x2="861" y2="169.72" stroke="black" stroke-width="0.559406"/>
<line opacity="0.2" x1="635" y1="147.344" x2="861" y2="147.344" stroke="black" stroke-width="0.559406"/>
<line opacity="0.2" x1="635" y1="124.968" x2="861" y2="124.968" stroke="black" stroke-width="0.559406"/>
<line opacity="0.2" x1="635" y1="102.591" x2="861" y2="102.591" stroke="black" stroke-width="0.559406"/>
<line opacity="0.2" x1="635" y1="80.2149" x2="861" y2="80.2149" stroke="black" stroke-width="0.559406"/>
<line opacity="0.2" x1="635" y1="57.8389" x2="861" y2="57.839" stroke="black" stroke-width="0.559406"/>
<line opacity="0.2" x1="635" y1="35.4625" x2="861" y2="35.4625" stroke="black" stroke-width="0.559406"/>
<line opacity="0.2" x1="635" y1="13.086" x2="861" y2="13.086" stroke="black" stroke-width="0.559406"/>
<g opacity="0.2">
<line x1="421.28" y1="-43" x2="421.28" y2="183" stroke="black" stroke-width="0.559406"/>
<line x1="443.659" y1="-43" x2="443.659" y2="183" stroke="black" stroke-width="0.559406"/>
<line x1="466.032" y1="-43" x2="466.032" y2="183" stroke="black" stroke-width="0.559406"/>
<line x1="488.409" y1="-43" x2="488.409" y2="183" stroke="black" stroke-width="0.559406"/>
<line x1="510.786" y1="-43" x2="510.786" y2="183" stroke="black" stroke-width="0.559406"/>
<line x1="533.161" y1="-43" x2="533.161" y2="183" stroke="black" stroke-width="0.559406"/>
<line x1="555.538" y1="-43" x2="555.537" y2="183" stroke="black" stroke-width="0.559406"/>
<line x1="577.914" y1="-43" x2="577.914" y2="183" stroke="black" stroke-width="0.559406"/>
<line x1="600.288" y1="-43" x2="600.287" y2="183" stroke="black" stroke-width="0.559406"/>
<line x1="600.288" y1="-43" x2="600.287" y2="183" stroke="black" stroke-width="0.559406"/>
<line x1="600.288" y1="-43" x2="600.287" y2="183" stroke="black" stroke-width="0.559406"/>
<line x1="600.288" y1="-43" x2="600.287" y2="183" stroke="black" stroke-width="0.559406"/>
<line x1="600.288" y1="-43" x2="600.287" y2="183" stroke="black" stroke-width="0.559406"/>
<line x1="600.288" y1="-43" x2="600.287" y2="183" stroke="black" stroke-width="0.559406"/>
<line x1="600.288" y1="-43" x2="600.287" y2="183" stroke="black" stroke-width="0.559406"/>
<line x1="600.288" y1="-43" x2="600.287" y2="183" stroke="black" stroke-width="0.559406"/>
<line x1="600.288" y1="-43" x2="600.287" y2="183" stroke="black" stroke-width="0.559406"/>
<line x1="600.288" y1="-43" x2="600.287" y2="183" stroke="black" stroke-width="0.559406"/>
<line x1="600.288" y1="-43" x2="600.287" y2="183" stroke="black" stroke-width="0.559406"/>
<line x1="600.288" y1="-43" x2="600.287" y2="183" stroke="black" stroke-width="0.559406"/>
<line x1="600.288" y1="-43" x2="600.287" y2="183" stroke="black" stroke-width="0.559406"/>
<line x1="622.666" y1="-43" x2="622.666" y2="183" stroke="black" stroke-width="0.559406"/>
</g>
</g>
<g opacity="0.3">
<g opacity="0.2">
<line x1="647.28" y1="183" x2="647.28" y2="409" stroke="black" stroke-width="0.559406"/>
</g>
<line opacity="0.2" x1="409" y1="283.839" x2="635" y2="283.839" stroke="black" stroke-width="0.559406"/>
<line opacity="0.2" x1="409" y1="261.462" x2="635" y2="261.462" stroke="black" stroke-width="0.559406"/>
<line opacity="0.2" x1="409" y1="239.086" x2="635" y2="239.086" stroke="black" stroke-width="0.559406"/>
<line opacity="0.2" x1="409" y1="216.71" x2="635" y2="216.71" stroke="black" stroke-width="0.559406"/>
<line opacity="0.2" x1="409" y1="194.334" x2="635" y2="194.334" stroke="black" stroke-width="0.559406"/>
<line opacity="0.2" x1="635" y1="283.839" x2="861" y2="283.839" stroke="black" stroke-width="0.559406"/>
<line opacity="0.2" x1="635" y1="261.462" x2="861" y2="261.462" stroke="black" stroke-width="0.559406"/>
<line opacity="0.2" x1="635" y1="239.086" x2="861" y2="239.086" stroke="black" stroke-width="0.559406"/>
<line opacity="0.2" x1="635" y1="216.71" x2="861" y2="216.71" stroke="black" stroke-width="0.559406"/>
<line opacity="0.2" x1="635" y1="194.334" x2="861" y2="194.334" stroke="black" stroke-width="0.559406"/>
<g opacity="0.2">
<line x1="421.28" y1="183" x2="421.28" y2="409" stroke="black" stroke-width="0.559406"/>
<line x1="443.659" y1="183" x2="443.659" y2="409" stroke="black" stroke-width="0.559406"/>
<line x1="466.032" y1="183" x2="466.032" y2="409" stroke="black" stroke-width="0.559406"/>
<line x1="488.409" y1="183" x2="488.409" y2="409" stroke="black" stroke-width="0.559406"/>
<line x1="510.786" y1="183" x2="510.786" y2="409" stroke="black" stroke-width="0.559406"/>
<line x1="533.161" y1="183" x2="533.161" y2="409" stroke="black" stroke-width="0.559406"/>
<line x1="555.538" y1="183" x2="555.537" y2="409" stroke="black" stroke-width="0.559406"/>
<line x1="577.914" y1="183" x2="577.914" y2="409" stroke="black" stroke-width="0.559406"/>
<line x1="600.288" y1="183" x2="600.287" y2="409" stroke="black" stroke-width="0.559406"/>
<line x1="600.288" y1="183" x2="600.287" y2="409" stroke="black" stroke-width="0.559406"/>
<line x1="600.288" y1="183" x2="600.287" y2="409" stroke="black" stroke-width="0.559406"/>
<line x1="600.288" y1="183" x2="600.287" y2="409" stroke="black" stroke-width="0.559406"/>
<line x1="600.288" y1="183" x2="600.287" y2="409" stroke="black" stroke-width="0.559406"/>
<line x1="600.288" y1="183" x2="600.287" y2="409" stroke="black" stroke-width="0.559406"/>
<line x1="600.288" y1="183" x2="600.287" y2="409" stroke="black" stroke-width="0.559406"/>
<line x1="600.288" y1="183" x2="600.287" y2="409" stroke="black" stroke-width="0.559406"/>
<line x1="600.288" y1="183" x2="600.287" y2="409" stroke="black" stroke-width="0.559406"/>
<line x1="600.288" y1="183" x2="600.287" y2="409" stroke="black" stroke-width="0.559406"/>
<line x1="600.288" y1="183" x2="600.287" y2="409" stroke="black" stroke-width="0.559406"/>
<line x1="600.288" y1="183" x2="600.287" y2="409" stroke="black" stroke-width="0.559406"/>
<line x1="600.288" y1="183" x2="600.287" y2="409" stroke="black" stroke-width="0.559406"/>
<line x1="622.666" y1="183" x2="622.666" y2="409" stroke="black" stroke-width="0.559406"/>
</g>
</g>
</svg>
