<svg width="180" height="180" viewBox="0 0 180 180" fill="none" xmlns="http://www.w3.org/2000/svg">
<g clip-path="url(#clip0_348_14235)">
<g opacity="0.2">
<line x1="11.9652" y1="-23" x2="11.9652" y2="203" stroke="#4F4F4F" stroke-width="0.559406"/>
<line x1="34.3383" y1="-23" x2="34.3383" y2="203" stroke="#4F4F4F" stroke-width="0.559406"/>
<line x1="56.7152" y1="-23" x2="56.7152" y2="203" stroke="#4F4F4F" stroke-width="0.559406"/>
<line x1="79.0922" y1="-23" x2="79.0922" y2="203" stroke="#4F4F4F" stroke-width="0.559406"/>
<line x1="101.467" y1="-23" x2="101.467" y2="203" stroke="#4F4F4F" stroke-width="0.559406"/>
<line x1="123.844" y1="-23" x2="123.844" y2="203" stroke="#4F4F4F" stroke-width="0.559406"/>
<line x1="146.221" y1="-23" x2="146.221" y2="203" stroke="#4F4F4F" stroke-width="0.559406"/>
<line x1="168.594" y1="-23" x2="168.594" y2="203" stroke="#4F4F4F" stroke-width="0.559406"/>
</g>
<line opacity="0.2" x1="-23" y1="168.037" x2="203" y2="168.037" stroke="#4F4F4F" stroke-width="0.559406"/>
<line opacity="0.2" x1="-23" y1="145.661" x2="203" y2="145.661" stroke="#4F4F4F" stroke-width="0.559406"/>
<line opacity="0.2" x1="-23" y1="123.285" x2="203" y2="123.285" stroke="#4F4F4F" stroke-width="0.559406"/>
<line opacity="0.2" x1="-23" y1="100.908" x2="203" y2="100.908" stroke="#4F4F4F" stroke-width="0.559406"/>
<line opacity="0.2" x1="-23" y1="78.5323" x2="203" y2="78.5323" stroke="#4F4F4F" stroke-width="0.559406"/>
<line opacity="0.2" x1="-23" y1="56.1558" x2="203" y2="56.1559" stroke="#4F4F4F" stroke-width="0.559406"/>
<line opacity="0.2" x1="-23" y1="33.7794" x2="203" y2="33.7794" stroke="#4F4F4F" stroke-width="0.559406"/>
<line opacity="0.2" x1="-23" y1="11.4034" x2="203" y2="11.4034" stroke="#4F4F4F" stroke-width="0.559406"/>
<circle cx="90" cy="90" r="98" fill="url(#paint0_radial_348_14235)"/>
<rect x="22.8535" y="36.3965" width="133.652" height="106.549" rx="11.5" stroke="#F1B500"/>
<rect x="13.6129" y="28.9955" width="152.134" height="121.35" rx="11.6" stroke="#F1B500" stroke-width="0.8"/>
<circle cx="89.999" cy="90" r="42.5947" stroke="#F1B500"/>
<circle cx="63.4807" cy="63.4802" r="2.07832" stroke="#F1B500"/>
<circle cx="90.0002" cy="52.4301" r="2.07832" stroke="#F1B500"/>
<circle cx="115.783" cy="63.4802" r="2.07832" stroke="#F1B500"/>
<circle cx="126.832" cy="89.9999" r="2.07832" stroke="#F1B500"/>
<circle cx="115.783" cy="115.783" r="2.07832" stroke="#F1B500"/>
<circle cx="90.0002" cy="126.833" r="2.07832" stroke="#F1B500"/>
<circle cx="63.4807" cy="115.783" r="2.07832" stroke="#F1B500"/>
<circle cx="89.9747" cy="90.0106" r="5.60951" stroke="#F1B500" stroke-width="0.5"/>
<path fill-rule="evenodd" clip-rule="evenodd" d="M74.2185 73.315L82.9092 82.0058L82.9033 82.0117L83.5357 82.6442C85.2563 81.1394 87.5086 80.2276 89.9739 80.2276C92.1178 80.2276 94.1006 80.9171 95.7127 82.0865L96.1026 82.4764L96.1189 82.4927L96.5896 82.0221L96.5733 82.0058L105.264 73.315L106.205 74.2563L97.8864 82.5752L97.8898 82.5785L97.0472 83.4211L97.5145 83.8883L97.5648 83.8381C98.9359 85.522 99.7579 87.6708 99.7579 90.0116C99.7579 92.6459 98.7168 95.0371 97.0236 96.796L97.509 97.2815L97.5145 97.2759L106.205 105.967L105.264 106.908L96.5733 98.2172L96.5807 98.2098L96.0509 97.68C94.3818 99.0045 92.2702 99.7956 89.9739 99.7956C87.5641 99.7956 85.3578 98.9243 83.6527 97.4797L82.5418 98.5906L82.5388 98.5876L74.2185 106.908L73.2772 105.967L81.968 97.2759L81.9839 97.2919L82.7098 96.566C81.1436 94.8312 80.1899 92.5328 80.1899 90.0116C80.1899 87.5458 81.1021 85.2931 82.6074 83.5724L81.975 82.94L81.968 82.9471L73.2772 74.2563L74.2185 73.315ZM73.7478 72.8444L74.2185 72.3738L74.6891 72.8444L83.3799 81.5352L83.6809 81.8362C85.4224 80.4936 87.6049 79.6951 89.9739 79.6951C92.2236 79.6951 94.305 80.4152 96.0004 81.6374L96.1026 81.5352L104.793 72.8444L105.264 72.3738L105.735 72.8444L106.676 73.7857L107.147 74.2563L106.676 74.7269L97.9852 83.4177L97.9431 83.4597C99.4097 85.2415 100.29 87.5237 100.29 90.0116C100.29 92.5505 99.3732 94.8751 97.8522 96.6724L97.9852 96.8053L106.676 105.496L107.147 105.967L106.676 106.437L105.735 107.379L105.264 107.849L104.793 107.379L96.1026 98.6878L95.8835 98.4688C94.2098 99.6405 92.1721 100.328 89.9739 100.328C87.6561 100.328 85.5169 99.5637 83.7944 98.2733L83.3799 98.6878L74.6891 107.379L74.2185 107.849L73.7478 107.379L72.8066 106.437L72.3359 105.967L72.8066 105.496L81.4973 96.8053L81.8861 96.4166C80.4908 94.657 79.6575 92.4316 79.6575 90.0116C79.6575 87.6427 80.4559 85.4602 81.7984 83.7187L81.4973 83.4177L72.8066 74.7269L72.3359 74.2563L72.8066 73.7857L73.7478 72.8444Z" fill="#F1B500"/>
<circle cx="89.976" cy="90.0109" r="7.91971" stroke="#F1B500" stroke-width="0.8"/>
<path fill-rule="evenodd" clip-rule="evenodd" d="M121.044 89.9996C121.044 107.145 107.145 121.044 89.9996 121.044C75.5245 121.044 63.3632 111.138 59.9261 97.7346H58.8945C62.3549 111.696 74.9687 122.044 89.9996 122.044C107.697 122.044 122.044 107.697 122.044 89.9996C122.044 72.3018 107.697 57.9548 89.9996 57.9548C75.1598 57.9548 62.6761 68.042 59.031 81.7338H60.0673C63.6859 68.6008 75.7163 58.9548 89.9996 58.9548C107.145 58.9548 121.044 72.8541 121.044 89.9996Z" fill="#F1B500"/>
<rect x="-0.368331" y="0.368331" width="8.00113" height="15.2642" transform="matrix(-1 0 0 1 62.6559 81.7339)" stroke="#F1B500" stroke-width="0.736662"/>
<path fill-rule="evenodd" clip-rule="evenodd" d="M117.56 89.9999C117.56 105.222 105.221 117.561 89.9989 117.561C77.2762 117.561 66.567 108.941 63.3934 97.2223V97.735H62.7051C66.072 109.639 77.0169 118.361 89.9989 118.361C105.663 118.361 118.36 105.664 118.36 89.9999C118.36 74.3363 105.663 61.6384 89.9989 61.6384C77.2106 61.6384 66.3991 70.1025 62.8608 81.7342H63.3934V82.7776C66.567 71.0589 77.2762 62.4384 89.9989 62.4384C105.221 62.4384 117.56 74.7781 117.56 89.9999Z" fill="#F1B500"/>
<rect x="-0.368331" y="0.368331" width="4.81745" height="11.155" transform="matrix(-1 0 0 1 61.0661 83.7888)" stroke="#F1B500" stroke-width="0.736662"/>
</g>
<defs>
<radialGradient id="paint0_radial_348_14235" cx="0" cy="0" r="1" gradientUnits="userSpaceOnUse" gradientTransform="translate(90 90) rotate(90) scale(98)">
<stop stop-color="#FAFAF9" stop-opacity="0"/>
<stop offset="1" stop-color="#FAFAF9"/>
</radialGradient>
<clipPath id="clip0_348_14235">
<rect width="180" height="180" rx="90" fill="white"/>
</clipPath>
</defs>
</svg>
