<svg width="490" height="490" viewBox="0 0 490 490" fill="none" xmlns="http://www.w3.org/2000/svg">
<g clip-path="url(#clip0_484_6128)">
<g opacity="0.2">
<line x1="33.3465" y1="-61.4873" x2="33.3465" y2="551.487" stroke="white" stroke-width="1.51726"/>
<line x1="94.0282" y1="-61.4873" x2="94.0281" y2="551.487" stroke="white" stroke-width="1.51726"/>
<line x1="154.722" y1="-61.4873" x2="154.721" y2="551.487" stroke="white" stroke-width="1.51726"/>
<line x1="215.415" y1="-61.4873" x2="215.415" y2="551.487" stroke="white" stroke-width="1.51726"/>
<line x1="276.1" y1="-61.4873" x2="276.1" y2="551.487" stroke="white" stroke-width="1.51726"/>
<line x1="336.794" y1="-61.4873" x2="336.794" y2="551.487" stroke="white" stroke-width="1.51726"/>
<line x1="397.487" y1="-61.4873" x2="397.487" y2="551.487" stroke="white" stroke-width="1.51726"/>
<line x1="458.169" y1="-61.4873" x2="458.169" y2="551.487" stroke="white" stroke-width="1.51726"/>
</g>
<line opacity="0.2" x1="-61.4883" y1="456.655" x2="551.487" y2="456.655" stroke="white" stroke-width="1.51726"/>
<line opacity="0.2" x1="-61.4883" y1="395.968" x2="551.487" y2="395.968" stroke="white" stroke-width="1.51726"/>
<line opacity="0.2" x1="-61.4883" y1="335.276" x2="551.487" y2="335.276" stroke="white" stroke-width="1.51726"/>
<line opacity="0.2" x1="-61.4883" y1="274.583" x2="551.487" y2="274.583" stroke="white" stroke-width="1.51726"/>
<line opacity="0.2" x1="-61.4883" y1="213.896" x2="551.487" y2="213.896" stroke="white" stroke-width="1.51726"/>
<line opacity="0.2" x1="-61.4883" y1="153.203" x2="551.487" y2="153.203" stroke="white" stroke-width="1.51726"/>
<line opacity="0.2" x1="-61.4883" y1="92.5109" x2="551.487" y2="92.5109" stroke="white" stroke-width="1.51726"/>
<line opacity="0.2" x1="-61.4883" y1="31.8236" x2="551.487" y2="31.8237" stroke="white" stroke-width="1.51726"/>
<circle cx="244.998" cy="245.378" r="247.4" fill="url(#paint0_radial_484_6128)"/>
<rect x="62.2035" y="98.9354" width="363.858" height="290.346" rx="31.8693" stroke="#F1B500" stroke-width="1.35614"/>
<rect x="37.0036" y="78.7263" width="414.256" height="330.763" rx="32.2761" stroke="#F1B500" stroke-width="0.542456"/>
<circle cx="244.998" cy="245.004" r="115.886" stroke="#F1B500" stroke-width="1.99803"/>
<circle cx="173.071" cy="173.074" r="6.1939" stroke="#F1B500" stroke-width="1.59843"/>
<circle cx="244.999" cy="143.106" r="6.1939" stroke="#F1B500" stroke-width="1.59843"/>
<circle cx="314.933" cy="173.074" r="6.1939" stroke="#F1B500" stroke-width="1.59843"/>
<circle cx="344.899" cy="245.002" r="6.1939" stroke="#F1B500" stroke-width="1.59843"/>
<circle cx="314.933" cy="314.933" r="6.1939" stroke="#F1B500" stroke-width="1.59843"/>
<circle cx="244.999" cy="344.906" r="6.1939" stroke="#F1B500" stroke-width="1.59843"/>
<circle cx="173.071" cy="314.933" r="6.1939" stroke="#F1B500" stroke-width="1.59843"/>
<circle cx="244.934" cy="245.034" r="14.8166" stroke="#F1B500" stroke-width="2.15209"/>
<path fill-rule="evenodd" clip-rule="evenodd" d="M202.198 199.752L225.769 223.324L225.753 223.341L227.468 225.056C232.135 220.974 238.244 218.501 244.931 218.501C250.746 218.501 256.124 220.371 260.496 223.543L261.554 224.6L261.598 224.645L262.875 223.368L262.83 223.324L286.402 199.752L288.955 202.305L266.391 224.869L266.401 224.878L264.116 227.163L265.383 228.43L265.519 228.294C269.238 232.861 271.468 238.689 271.468 245.038C271.468 252.183 268.644 258.669 264.051 263.44L265.367 264.757L265.383 264.741L288.955 288.313L286.402 290.866L262.83 267.294L262.849 267.275L261.412 265.838C256.885 269.429 251.159 271.575 244.931 271.575C238.395 271.575 232.411 269.212 227.787 265.294L224.772 268.308L224.764 268.299L202.198 290.866L199.645 288.313L223.217 264.741L223.26 264.785L225.229 262.816C220.981 258.111 218.394 251.876 218.394 245.038C218.394 238.35 220.868 232.241 224.95 227.574L223.235 225.859L223.217 225.877L199.645 202.305L202.198 199.752ZM200.921 198.476L202.198 197.199L203.474 198.476L227.046 222.047L227.862 222.864C232.586 219.223 238.506 217.057 244.931 217.057C251.033 217.057 256.678 219.01 261.276 222.325L261.554 222.047L285.125 198.476L286.402 197.199L287.678 198.476L290.231 201.029L291.508 202.305L290.231 203.582L266.66 227.153L266.546 227.267C270.523 232.1 272.912 238.29 272.912 245.038C272.912 251.924 270.424 258.229 266.299 263.104L266.66 263.464L290.231 287.036L291.508 288.313L290.231 289.589L287.678 292.142L286.402 293.419L285.125 292.142L261.554 268.57L260.959 267.976C256.42 271.154 250.893 273.019 244.931 273.019C238.644 273.019 232.842 270.946 228.17 267.446L227.046 268.57L203.474 292.142L202.198 293.419L200.921 292.142L198.368 289.589L197.092 288.313L198.368 287.036L221.94 263.464L222.994 262.41C219.21 257.638 216.95 251.602 216.95 245.038C216.95 238.613 219.115 232.693 222.757 227.97L221.94 227.153L198.368 203.582L197.092 202.305L198.368 201.029L200.921 198.476Z" fill="#F1B500"/>
<circle cx="244.933" cy="245.038" r="21.4893" stroke="#F1B500" stroke-width="2.15209"/>
<path fill-rule="evenodd" clip-rule="evenodd" d="M329.912 245.001C329.912 291.899 291.894 329.917 244.996 329.917C205.339 329.917 172.031 302.732 162.691 265.981H160.631C170.017 303.847 204.228 331.915 244.996 331.915C292.998 331.915 331.91 293.002 331.91 245.001C331.91 196.999 292.998 158.086 244.996 158.086C204.746 158.086 170.887 185.446 161 222.582H163.07C172.904 186.562 205.858 160.084 244.996 160.084C291.894 160.084 329.912 198.103 329.912 245.001Z" fill="#F1B500"/>
<rect x="-0.999016" y="0.999016" width="21.7013" height="41.4006" transform="matrix(-1 0 0 1 170.838 222.583)" stroke="#F1B500" stroke-width="1.99803"/>
<path fill-rule="evenodd" clip-rule="evenodd" d="M320.325 245.002C320.325 286.603 286.601 320.328 244.999 320.328C210.679 320.328 181.719 297.375 172.634 265.982H170.971C180.103 298.269 209.788 321.926 244.999 321.926C287.483 321.926 321.923 287.486 321.923 245.002C321.923 202.518 287.483 168.078 244.999 168.078C210.314 168.078 180.99 191.035 171.393 222.583H172.838V223.33C182.146 192.293 210.931 169.676 244.999 169.676C286.601 169.676 320.325 203.401 320.325 245.002Z" fill="#F1B500"/>
<rect x="-0.999016" y="0.999016" width="13.0663" height="30.2554" transform="matrix(-1 0 0 1 166.523 228.156)" stroke="#F1B500" stroke-width="1.99803"/>
</g>
<defs>
<radialGradient id="paint0_radial_484_6128" cx="0" cy="0" r="1" gradientUnits="userSpaceOnUse" gradientTransform="translate(244.998 245.378) rotate(90) scale(247.4)">
<stop stop-color="#13110F" stop-opacity="0"/>
<stop offset="1" stop-color="#1C1917"/>
</radialGradient>
<clipPath id="clip0_484_6128">
<rect x="0.894531" y="0.894531" width="488.21" height="488.21" rx="244.105" fill="white"/>
</clipPath>
</defs>
</svg>
