<svg width="20" height="21" viewBox="0 0 20 21" fill="none" xmlns="http://www.w3.org/2000/svg">
<path fill-rule="evenodd" clip-rule="evenodd" d="M4.16667 5.7085C2.90101 5.7085 1.875 6.73451 1.875 8.00016V15.5002C1.875 16.7658 2.90102 17.7918 4.16667 17.7918H15.8333C17.099 17.7918 18.125 16.7658 18.125 15.5002V8.00016C18.125 6.73452 17.099 5.7085 15.8333 5.7085H4.16667ZM13.75 10.7086C13.1747 10.7086 12.7083 11.175 12.7083 11.7502C12.7083 12.3255 13.1747 12.7919 13.75 12.7919C14.3253 12.7919 14.7917 12.3255 14.7917 11.7502C14.7917 11.175 14.3253 10.7086 13.75 10.7086Z" fill="currentColor"/>
<path d="M13.7372 3.05718C14.7953 2.77503 15.8333 3.57253 15.8333 4.66758H7.5L13.7372 3.05718Z" fill="currentColor"/>
</svg>
