<svg width="367" height="136" viewBox="0 0 367 136" fill="none" xmlns="http://www.w3.org/2000/svg">
<g clip-path="url(#clip0_348_14853)">
<rect width="367" height="136" rx="12" fill="#F1B500"/>
<g opacity="0.5">
<g opacity="0.2">
<line x1="195.28" y1="-43" x2="195.28" y2="183" stroke="black" stroke-width="0.559406"/>
<line x1="217.659" y1="-43" x2="217.659" y2="183" stroke="black" stroke-width="0.559406"/>
<line x1="240.032" y1="-43" x2="240.032" y2="183" stroke="black" stroke-width="0.559406"/>
<line x1="262.409" y1="-43" x2="262.409" y2="183" stroke="black" stroke-width="0.559406"/>
<line x1="284.786" y1="-43" x2="284.786" y2="183" stroke="black" stroke-width="0.559406"/>
<line x1="307.161" y1="-43" x2="307.161" y2="183" stroke="black" stroke-width="0.559406"/>
<line x1="329.538" y1="-43" x2="329.538" y2="183" stroke="black" stroke-width="0.559406"/>
<line x1="351.914" y1="-43" x2="351.914" y2="183" stroke="black" stroke-width="0.559406"/>
</g>
<line opacity="0.2" x1="-43" y1="124.968" x2="183" y2="124.968" stroke="black" stroke-width="0.559406"/>
<line opacity="0.2" x1="-43" y1="102.591" x2="183" y2="102.591" stroke="black" stroke-width="0.559406"/>
<line opacity="0.2" x1="-43" y1="80.2149" x2="183" y2="80.2149" stroke="black" stroke-width="0.559406"/>
<line opacity="0.2" x1="-43" y1="57.8389" x2="183" y2="57.839" stroke="black" stroke-width="0.559406"/>
<line opacity="0.2" x1="-43" y1="35.4625" x2="183" y2="35.4625" stroke="black" stroke-width="0.559406"/>
<line opacity="0.2" x1="-43" y1="13.086" x2="183" y2="13.086" stroke="black" stroke-width="0.559406"/>
<line opacity="0.2" x1="183" y1="124.968" x2="409" y2="124.968" stroke="black" stroke-width="0.559406"/>
<line opacity="0.2" x1="183" y1="102.591" x2="409" y2="102.591" stroke="black" stroke-width="0.559406"/>
<line opacity="0.2" x1="183" y1="80.2149" x2="409" y2="80.2149" stroke="black" stroke-width="0.559406"/>
<line opacity="0.2" x1="183" y1="57.8389" x2="409" y2="57.839" stroke="black" stroke-width="0.559406"/>
<line opacity="0.2" x1="183" y1="35.4625" x2="409" y2="35.4625" stroke="black" stroke-width="0.559406"/>
<line opacity="0.2" x1="183" y1="13.086" x2="409" y2="13.086" stroke="black" stroke-width="0.559406"/>
<g opacity="0.2">
<line x1="14.0317" y1="-43" x2="14.0316" y2="183" stroke="black" stroke-width="0.559406"/>
<line x1="36.4086" y1="-43" x2="36.4086" y2="183" stroke="black" stroke-width="0.559406"/>
<line x1="58.7856" y1="-43" x2="58.7856" y2="183" stroke="black" stroke-width="0.559406"/>
<line x1="81.1606" y1="-43" x2="81.1606" y2="183" stroke="black" stroke-width="0.559406"/>
<line x1="103.538" y1="-43" x2="103.538" y2="183" stroke="black" stroke-width="0.559406"/>
<line x1="125.914" y1="-43" x2="125.914" y2="183" stroke="black" stroke-width="0.559406"/>
<line x1="148.288" y1="-43" x2="148.288" y2="183" stroke="black" stroke-width="0.559406"/>
<line x1="148.288" y1="-43" x2="148.288" y2="183" stroke="black" stroke-width="0.559406"/>
<line x1="148.288" y1="-43" x2="148.288" y2="183" stroke="black" stroke-width="0.559406"/>
<line x1="148.288" y1="-43" x2="148.288" y2="183" stroke="black" stroke-width="0.559406"/>
<line x1="148.288" y1="-43" x2="148.288" y2="183" stroke="black" stroke-width="0.559406"/>
<line x1="148.288" y1="-43" x2="148.288" y2="183" stroke="black" stroke-width="0.559406"/>
<line x1="148.288" y1="-43" x2="148.288" y2="183" stroke="black" stroke-width="0.559406"/>
<line x1="148.288" y1="-43" x2="148.288" y2="183" stroke="black" stroke-width="0.559406"/>
<line x1="148.288" y1="-43" x2="148.288" y2="183" stroke="black" stroke-width="0.559406"/>
<line x1="148.288" y1="-43" x2="148.288" y2="183" stroke="black" stroke-width="0.559406"/>
<line x1="148.288" y1="-43" x2="148.288" y2="183" stroke="black" stroke-width="0.559406"/>
<line x1="148.288" y1="-43" x2="148.288" y2="183" stroke="black" stroke-width="0.559406"/>
<line x1="148.288" y1="-43" x2="148.288" y2="183" stroke="black" stroke-width="0.559406"/>
<line x1="170.666" y1="-43" x2="170.666" y2="183" stroke="black" stroke-width="0.559406"/>
</g>
</g>
<circle cx="180.661" cy="70.7241" r="46.6862" stroke="black" stroke-width="2" stroke-linecap="round" stroke-linejoin="round"/>
<path d="M129 127.683L199.205 69.3994V113.852M229.671 12.4409L159.466 72.0486V29.096" stroke="black" stroke-width="2" stroke-linecap="round" stroke-linejoin="round"/>
<path d="M165.272 70.8089L237.814 9M180.077 89.6847L196.5 75.6613V111.151M145.396 110.151L130.592 122.735M156.5 70V34C144.78 42.1425 128.456 62.6703 144 94.5M216 47C222.663 56.9931 231 78.5 211.559 101.037" stroke="black"/>
</g>
<defs>
<clipPath id="clip0_348_14853">
<rect width="367" height="136" rx="12" fill="white"/>
</clipPath>
</defs>
</svg>
