<svg width="180" height="180" viewBox="0 0 180 180" fill="none" xmlns="http://www.w3.org/2000/svg">
<g clip-path="url(#clip0_348_14195)">
<g opacity="0.2">
<line x1="11.9652" y1="-23" x2="11.9652" y2="203" stroke="#4F4F4F" stroke-width="0.559406"/>
<line x1="34.3383" y1="-23" x2="34.3383" y2="203" stroke="#4F4F4F" stroke-width="0.559406"/>
<line x1="56.7152" y1="-23" x2="56.7152" y2="203" stroke="#4F4F4F" stroke-width="0.559406"/>
<line x1="79.0922" y1="-23" x2="79.0922" y2="203" stroke="#4F4F4F" stroke-width="0.559406"/>
<line x1="101.467" y1="-23" x2="101.467" y2="203" stroke="#4F4F4F" stroke-width="0.559406"/>
<line x1="123.844" y1="-23" x2="123.844" y2="203" stroke="#4F4F4F" stroke-width="0.559406"/>
<line x1="146.221" y1="-23" x2="146.221" y2="203" stroke="#4F4F4F" stroke-width="0.559406"/>
<line x1="168.594" y1="-23" x2="168.594" y2="203" stroke="#4F4F4F" stroke-width="0.559406"/>
</g>
<line opacity="0.2" x1="-23" y1="168.037" x2="203" y2="168.037" stroke="#4F4F4F" stroke-width="0.559406"/>
<line opacity="0.2" x1="-23" y1="145.661" x2="203" y2="145.661" stroke="#4F4F4F" stroke-width="0.559406"/>
<line opacity="0.2" x1="-23" y1="123.285" x2="203" y2="123.285" stroke="#4F4F4F" stroke-width="0.559406"/>
<line opacity="0.2" x1="-23" y1="100.908" x2="203" y2="100.908" stroke="#4F4F4F" stroke-width="0.559406"/>
<line opacity="0.2" x1="-23" y1="78.5323" x2="203" y2="78.5323" stroke="#4F4F4F" stroke-width="0.559406"/>
<line opacity="0.2" x1="-23" y1="56.1558" x2="203" y2="56.1559" stroke="#4F4F4F" stroke-width="0.559406"/>
<line opacity="0.2" x1="-23" y1="33.7794" x2="203" y2="33.7794" stroke="#4F4F4F" stroke-width="0.559406"/>
<line opacity="0.2" x1="-23" y1="11.4034" x2="203" y2="11.4034" stroke="#4F4F4F" stroke-width="0.559406"/>
<circle cx="90" cy="90" r="98" fill="url(#paint0_radial_348_14195)"/>
<circle cx="89.9979" cy="89.9993" r="59.6658" stroke="#F1B500" stroke-width="1.5"/>
<circle cx="89.9989" cy="89.9999" r="49.5965" stroke="#F1B500" stroke-width="1.5"/>
<circle cx="89.9992" cy="90.0007" r="42.798" stroke="#F1B500"/>
<path d="M113.636 62.307L113.172 62.687V62.687L113.636 62.307ZM113.308 65.588L112.928 65.1237V65.1238L113.308 65.588ZM110.355 61.9796L109.975 61.5153V61.5153L110.355 61.9796ZM101.234 69.4453L100.93 69.9624C101.146 70.0898 101.419 70.0687 101.614 69.9096L101.234 69.4453ZM75.7227 104.221L76.1028 104.686C76.2365 104.576 76.3165 104.414 76.3224 104.242C76.3283 104.069 76.2594 103.902 76.1335 103.784L75.7227 104.221ZM67.4955 110.955L67.1154 110.491H67.1154L67.4955 110.955ZM67.168 114.236L66.7037 114.617H66.7037L67.168 114.236ZM70.4491 114.564L70.8291 115.028H70.8291L70.4491 114.564ZM79.5662 107.101L79.8703 106.584C79.6537 106.457 79.3806 106.478 79.1862 106.637L79.5662 107.101ZM105.077 72.3254L104.697 71.8611C104.564 71.9706 104.484 72.1323 104.478 72.305C104.472 72.4777 104.541 72.6445 104.667 72.7628L105.077 72.3254ZM97.3096 72.6573L97.6896 73.1216C97.8501 72.9903 97.9314 72.7854 97.9045 72.5797C97.8777 72.3741 97.7466 72.1969 97.5578 72.1111L97.3096 72.6573ZM84.0714 72.4065L83.8441 71.8512C83.6187 71.9435 83.4714 72.1629 83.4714 72.4065H84.0714ZM84.0714 83.493H83.4714C83.4714 83.7249 83.605 83.936 83.8146 84.0353C84.0241 84.1345 84.2721 84.1042 84.4515 83.9573L84.0714 83.493ZM79.4083 75.2799H80.0083C80.0083 75.0449 79.8711 74.8316 79.6573 74.734C79.4436 74.6365 79.1925 74.6727 79.0151 74.8267L79.4083 75.2799ZM80.7416 90.5216L80.4847 91.0638L80.4847 91.0638L80.7416 90.5216ZM83.2167 90.2188L82.8366 89.7545L83.2167 90.2188ZM101.429 75.312L101.823 74.8599C101.602 74.6674 101.275 74.6622 101.049 74.8477L101.429 75.312ZM101.396 101.263H100.796C100.796 101.498 100.933 101.712 101.147 101.809C101.361 101.907 101.612 101.87 101.789 101.716L101.396 101.263ZM100.062 86.0219L99.8056 86.5642L100.062 86.0219ZM97.5874 86.3248L97.2074 85.8605L97.5874 86.3248ZM79.3715 101.235L78.977 101.687C79.1976 101.879 79.5249 101.885 79.7515 101.699L79.3715 101.235ZM83.4905 103.889L83.1104 103.425C82.95 103.556 82.8687 103.761 82.8955 103.967C82.9224 104.173 83.0535 104.35 83.2423 104.436L83.4905 103.889ZM96.7326 93.0505H97.3326C97.3326 92.8186 97.199 92.6075 96.9895 92.5083C96.78 92.409 96.532 92.4393 96.3526 92.5862L96.7326 93.0505ZM96.7326 104.138L96.9601 104.694C97.1854 104.601 97.3326 104.382 97.3326 104.138H96.7326ZM113.172 62.687C113.777 63.4271 113.668 64.518 112.928 65.1237L113.688 66.0523C114.941 65.0268 115.126 63.1798 114.1 61.927L113.172 62.687ZM110.735 62.4439C111.475 61.8381 112.566 61.947 113.172 62.687L114.1 61.927C113.075 60.6741 111.228 60.4897 109.975 61.5153L110.735 62.4439ZM101.614 69.9096L110.735 62.4439L109.975 61.5153L100.854 68.981L101.614 69.9096ZM101.538 68.9281C98.2676 67.0047 94.4628 65.902 90.3999 65.902V67.102C94.2427 67.102 97.8382 68.1443 100.93 69.9624L101.538 68.9281ZM90.3999 65.902C78.131 65.902 68.2399 75.9486 68.2399 88.2734H69.4399C69.4399 76.5985 78.8065 67.102 90.3999 67.102V65.902ZM68.2399 88.2734C68.2399 94.7354 70.9588 100.57 75.312 104.659L76.1335 103.784C72.0133 99.9142 69.4399 94.3925 69.4399 88.2734H68.2399ZM75.3427 103.757L67.1154 110.491L67.8755 111.42L76.1028 104.686L75.3427 103.757ZM67.1154 110.491C65.8626 111.517 65.6782 113.364 66.7037 114.617L67.6323 113.856C67.0266 113.116 67.1355 112.025 67.8755 111.42L67.1154 110.491ZM66.7037 114.617C67.7292 115.869 69.5762 116.054 70.8291 115.028L70.069 114.1C69.329 114.705 68.2381 114.596 67.6323 113.856L66.7037 114.617ZM70.8291 115.028L79.9462 107.566L79.1862 106.637L70.069 114.1L70.8291 115.028ZM79.262 107.619C82.5325 109.542 86.3371 110.645 90.3999 110.645V109.445C86.5572 109.445 82.9618 108.402 79.8703 106.584L79.262 107.619ZM90.3999 110.645C102.669 110.645 112.56 100.598 112.56 88.2734H111.36C111.36 99.9482 101.994 109.445 90.3999 109.445V110.645ZM112.56 88.2734C112.56 81.8114 109.841 75.9767 105.488 71.8881L104.667 72.7628C108.787 76.6326 111.36 82.1542 111.36 88.2734H112.56ZM112.928 65.1238L104.697 71.8611L105.457 72.7897L113.688 66.0523L112.928 65.1238ZM97.5578 72.1111C95.3706 71.1173 92.9468 70.5652 90.3999 70.5652V71.7652C92.7717 71.7652 95.0266 72.2791 97.0614 73.2036L97.5578 72.1111ZM90.3999 70.5652C88.0847 70.5652 85.871 71.0215 83.8441 71.8512L84.2987 72.9618C86.1841 72.19 88.2436 71.7652 90.3999 71.7652V70.5652ZM83.4714 72.4065V83.493H84.6714V72.4065H83.4714ZM84.4515 83.9573L97.6896 73.1216L96.9296 72.193L83.6914 83.0287L84.4515 83.9573ZM80.0083 88.4145V75.2799H78.8083V88.4145H80.0083ZM80.9985 89.9794C80.3938 89.6929 80.0083 89.0837 80.0083 88.4145H78.8083C78.8083 89.5474 79.461 90.5788 80.4847 91.0638L80.9985 89.9794ZM82.8366 89.7545C82.3188 90.1783 81.6032 90.2659 80.9985 89.9794L80.4847 91.0638C81.5085 91.5489 82.7201 91.4006 83.5967 90.6831L82.8366 89.7545ZM101.049 74.8477L82.8366 89.7545L83.5967 90.6831L101.809 75.7763L101.049 74.8477ZM107.897 88.2734C107.897 82.9044 105.539 78.1032 101.823 74.8599L101.034 75.764C104.498 78.7875 106.697 83.2629 106.697 88.2734H107.897ZM101.789 101.716C105.525 98.4726 107.897 93.6587 107.897 88.2734H106.697C106.697 93.299 104.485 97.7864 101.002 100.81L101.789 101.716ZM100.796 88.129V101.263H101.996V88.129H100.796ZM99.8056 86.5642C100.41 86.8506 100.796 87.4599 100.796 88.129H101.996C101.996 86.9962 101.343 85.9647 100.319 85.4797L99.8056 86.5642ZM97.9674 86.7891C98.4852 86.3652 99.2009 86.2777 99.8056 86.5642L100.319 85.4797C99.2956 84.9947 98.084 85.1429 97.2074 85.8605L97.9674 86.7891ZM79.7515 101.699L97.9674 86.7891L97.2074 85.8605L78.9914 100.77L79.7515 101.699ZM72.9031 88.2734C72.9031 93.6424 75.2605 98.4435 78.977 101.687L79.766 100.783C76.3015 97.7593 74.1031 93.2838 74.1031 88.2734H72.9031ZM79.0151 74.8267C75.2766 78.0704 72.9031 82.886 72.9031 88.2734H74.1031C74.1031 83.2458 76.3165 78.7569 79.8015 75.7331L79.0151 74.8267ZM83.2423 104.436C85.4295 105.429 87.8532 105.981 90.3999 105.981V104.781C88.0282 104.781 85.7735 104.268 83.7387 103.343L83.2423 104.436ZM96.3526 92.5862L83.1104 103.425L83.8705 104.354L97.1126 93.5148L96.3526 92.5862ZM97.3326 104.138V93.0505H96.1326V104.138H97.3326ZM90.3999 105.981C92.7168 105.981 94.9321 105.524 96.9601 104.694L96.5052 103.583C94.6187 104.356 92.5578 104.781 90.3999 104.781V105.981Z" fill="#F1B500"/>
</g>
<defs>
<radialGradient id="paint0_radial_348_14195" cx="0" cy="0" r="1" gradientUnits="userSpaceOnUse" gradientTransform="translate(90 90) rotate(90) scale(98)">
<stop stop-color="#FAFAF9" stop-opacity="0"/>
<stop offset="1" stop-color="#FAFAF9"/>
</radialGradient>
<clipPath id="clip0_348_14195">
<rect width="180" height="180" rx="90" fill="white"/>
</clipPath>
</defs>
</svg>
