<svg xmlns="http://www.w3.org/2000/svg" width="1280" height="567" viewBox="0 0 1280 567" fill="none">
<path d="M111.2 234.901C250.221 187.792 677.405 72.4041 1197 213.5" stroke="#433A20" stroke-dasharray="52 52"/>
<circle cx="-130" cy="224" r="223.5" stroke="#292524"/>
<circle cx="-102" cy="224" r="161.5" stroke="#292524"/>
<circle cx="-95.5" cy="223.5" r="122" stroke="#292524"/>
<circle cx="224" cy="224" r="223.5" transform="matrix(-1 0 0 1 1650 119)" stroke="#5F5126"/>
<circle cx="162" cy="162" r="161.5" transform="matrix(-1 0 0 1 1560 181)" stroke="#5F5126"/>
<circle cx="122.5" cy="122.5" r="122" transform="matrix(-1 0 0 1 1514 220)" stroke="#5F5126"/>
<g clip-path="url(#clip0_350_18077)">
<path d="M253.889 185.64L254.673 187.828L245.687 190.192L244.651 185.607L249.425 184.421L253.889 185.64Z" stroke="#78716C" stroke-width="0.5"/>
<path d="M250.085 207.486L248.814 203.176L257.803 200.81L258.235 203.141L254.865 206.298L250.085 207.486Z" stroke="#78716C" stroke-width="0.5"/>
<path d="M236.799 199.277L244.105 197.305L244.263 197.996L236.957 199.968L236.799 199.277Z" fill="#78716C"/>
<path d="M236.877 199.519L244.499 197.624L244.61 198.072L236.988 199.967L236.877 199.519Z" fill="#A8A29E"/>
<path d="M240.967 200.036L244.804 199L245.016 199.927L241.179 200.963L240.967 200.036Z" fill="#A8A29E"/>
<path d="M240 196.036L243.837 195L243.97 195.582L240.133 196.617L240 196.036Z" fill="#78716C"/>
<path d="M247.42 190.666L250.17 201.731L248.73 203.081L245.467 202.537L242.864 192.068L245.511 190.147L247.42 190.666Z" stroke="#78716C" stroke-width="0.5"/>
<path d="M267.705 196.854L267.848 197.058L267.705 196.854C265.373 198.493 262.689 199.692 259.943 200.321L259.943 200.321L259.939 200.322L248.991 203.043L245.762 190.056L256.711 187.334L256.711 187.334L256.715 187.333C261.748 185.99 266.057 186.644 269.143 187.647C270.687 188.149 271.925 188.737 272.795 189.207C273.229 189.441 273.572 189.646 273.815 189.796C273.895 189.845 273.963 189.887 274.021 189.923C274.022 189.924 274.024 189.925 274.026 189.926C274.003 189.964 273.979 190.005 273.953 190.05C273.317 191.127 271.52 194.172 267.705 196.854Z" stroke="#78716C" stroke-width="0.5"/>
<path d="M261.708 190.448L261.708 190.448C259.029 188.838 255.784 191.298 256.525 194.278C256.989 196.145 258.884 197.286 260.749 196.823C260.749 196.823 260.749 196.823 260.749 196.823M261.708 190.448L261.836 190.233C264.688 191.946 264.023 196.266 260.809 197.065L260.749 196.823M261.708 190.448C264.366 192.045 263.748 196.077 260.749 196.823M261.708 190.448L260.749 196.823" stroke="#78716C" stroke-width="0.5"/>
</g>
<defs>
<clipPath id="clip0_350_18077">
<rect width="28" height="28" fill="white" transform="translate(250.387 175.398) rotate(31.0393)"/>
</clipPath>
</defs>
</svg>