<svg xmlns="http://www.w3.org/2000/svg" viewBox="0 0 50 10" fill="none">
  <path fill-rule="evenodd" clip-rule="evenodd" d="M6.77804 4.28057H11.1182C11.1566 4.02036 11.1758 3.80483 11.1758 3.63408C11.1758 2.72328 10.8995 1.95891 10.3469 1.34085C9.80961 0.722847 9.11506 0.413818 8.26314 0.413818C7.36515 0.413818 6.63607 0.722847 6.07581 1.34085C5.50785 1.95891 5.22388 2.72328 5.22388 3.63408C5.22388 4.56111 5.51169 5.32959 6.08728 5.9395C6.66292 6.54941 7.42657 6.85434 8.37825 6.85434C9.48347 6.85434 10.32 6.41928 10.8879 5.54916L9.69065 4.81727C9.39904 5.2239 8.96921 5.42718 8.40131 5.42718C7.51101 5.42718 6.9699 5.04499 6.77804 4.28057ZM9.69065 3.0608H6.75503C6.83946 2.67046 7.01211 2.36958 7.27309 2.15815C7.53401 1.93857 7.86404 1.82878 8.26314 1.82878C8.61617 1.82878 8.91936 1.93452 9.1726 2.14596C9.43357 2.35739 9.60622 2.66232 9.69065 3.0608ZM2.23772 5.2075L4.67834 1.63354V0.584473H0.361211V2.06045H2.67519L0.246094 5.63447V6.68348H4.79345V5.2075H2.23772ZM13.6975 0.584629V1.6337C13.8279 1.25146 14.0505 0.962769 14.3652 0.767628C14.6799 0.56429 15.0406 0.462646 15.4474 0.462646V2.21917C14.9945 2.15411 14.5878 2.2517 14.227 2.51191C13.874 2.76402 13.6975 3.18284 13.6975 3.76831V6.68364H12.2124V0.584629H13.6975ZM18.8425 6.85434C19.7021 6.85434 20.4235 6.54536 21.0069 5.9273C21.5978 5.30115 21.8933 4.53673 21.8933 3.63408C21.8933 2.73958 21.5978 1.97925 21.0069 1.35305C20.4159 0.726894 19.6944 0.413818 18.8425 0.413818C17.9906 0.413818 17.2692 0.726894 16.6782 1.35305C16.0949 1.9711 15.8032 2.73143 15.8032 3.63408C15.8032 4.54487 16.0949 5.3093 16.6782 5.9273C17.2615 6.54536 17.9829 6.85434 18.8425 6.85434ZM18.8425 5.31739C18.3974 5.31739 18.0251 5.15883 17.7258 4.84171C17.4342 4.51639 17.2883 4.11386 17.2883 3.63408C17.2883 3.1543 17.4342 2.75177 17.7258 2.4265C18.0251 2.10933 18.3974 1.95076 18.8425 1.95076C19.2876 1.95076 19.6599 2.10933 19.9592 2.4265C20.2585 2.74362 20.4082 3.14615 20.4082 3.63408C20.4082 4.12201 20.2585 4.52453 19.9592 4.84171C19.6599 5.15883 19.2876 5.31739 18.8425 5.31739ZM24.1842 2.31671C24.1842 2.57692 24.5334 2.80054 25.2319 2.98759C25.4775 3.04451 25.7 3.11362 25.8996 3.19497C26.0991 3.26813 26.2987 3.37792 26.4982 3.52429C26.7054 3.66256 26.8666 3.84956 26.9818 4.08543C27.0971 4.32125 27.1545 4.59365 27.1545 4.90267C27.1545 5.52883 26.9316 6.01271 26.4867 6.35422C26.0416 6.68763 25.4928 6.85434 24.8405 6.85434C23.6585 6.85434 22.8526 6.37051 22.4229 5.4028L23.7122 4.63432C23.8887 5.16288 24.2648 5.42718 24.8405 5.42718C25.37 5.42718 25.6348 5.25233 25.6348 4.90267C25.6348 4.64247 25.2856 4.41884 24.5872 4.2318C24.3262 4.15859 24.1037 4.08543 23.9195 4.01222C23.7353 3.93906 23.5357 3.83332 23.3208 3.6951C23.1059 3.54868 22.9409 3.36573 22.8258 3.14615C22.7184 2.91848 22.6646 2.65417 22.6646 2.35329C22.6646 1.75152 22.8718 1.27989 23.2863 0.938327C23.7084 0.588672 24.2303 0.413818 24.8519 0.413818C25.3201 0.413818 25.7461 0.527655 26.1298 0.755379C26.5136 0.974906 26.8167 1.29208 27.0392 1.7068L25.7729 2.43869C25.5888 2.02397 25.2818 1.81659 24.8519 1.81659C24.6601 1.81659 24.4989 1.86536 24.3684 1.96296C24.2456 2.05241 24.1842 2.17034 24.1842 2.31671ZM34.4223 0.584473L33.4438 4.34149L32.3961 0.584473H30.9918L29.9441 4.32929L28.9656 0.584473H27.3882L29.2187 6.68348H30.6347L31.6942 2.98749L32.7532 6.68348H34.1692L35.9997 0.584473H34.4223ZM40.9495 1.30427V0.584573H42.4347V6.68358H40.9495V5.96388C40.5048 6.55755 39.8793 6.85434 39.0734 6.85434C38.3059 6.85434 37.6456 6.54536 37.0933 5.9273C36.5482 5.30115 36.2756 4.53673 36.2756 3.63408C36.2756 2.73958 36.5482 1.97925 37.0933 1.35305C37.6456 0.726894 38.3059 0.413818 39.0734 0.413818C39.8793 0.413818 40.5048 0.710654 40.9495 1.30427ZM38.2096 4.87829C38.5093 5.19541 38.889 5.35402 39.3495 5.35402C39.8101 5.35402 40.1897 5.19541 40.4894 4.87829C40.7963 4.55302 40.9495 4.13825 40.9495 3.63408C40.9495 3.12991 40.7963 2.71924 40.4894 2.40211C40.1897 2.07679 39.8101 1.91419 39.3495 1.91419C38.889 1.91419 38.5093 2.07679 38.2096 2.40211C37.9104 2.71924 37.7608 3.12991 37.7608 3.63408C37.7608 4.13825 37.9104 4.55302 38.2096 4.87829ZM49.1119 1.35305C48.5668 0.726894 47.9069 0.413818 47.1318 0.413818C46.3259 0.413818 45.7045 0.710654 45.2669 1.30427V0.584573H43.7817V9.12318H45.2669V5.96388C45.7045 6.55755 46.3259 6.85434 47.1318 6.85434C47.9146 6.85434 48.5745 6.54536 49.1119 5.9273C49.6647 5.3093 49.9408 4.54487 49.9408 3.63408C49.9408 2.73958 49.6647 1.97925 49.1119 1.35305ZM46.8556 5.35402C46.3951 5.35402 46.0149 5.19541 45.7157 4.87829C45.4165 4.55302 45.2669 4.13825 45.2669 3.63408C45.2669 3.12991 45.4165 2.71924 45.7157 2.40211C46.0149 2.07679 46.3951 1.91419 46.8556 1.91419C47.3162 1.91419 47.6958 2.07679 47.995 2.40211C48.3024 2.71924 48.4556 3.12991 48.4556 3.63408C48.4556 4.13825 48.3024 4.55302 47.995 4.87829C47.6958 5.19541 47.3162 5.35402 46.8556 5.35402Z" fill="url(#paint0_linear_348_14041)"/>
  <defs>
    <linearGradient id="paint0_linear_348_14041" x1="0.246094" y1="0.413818" x2="41.4292" y2="23.9909" gradientUnits="userSpaceOnUse">
      <stop stop-color="#087EE1"/>
      <stop offset="1" stop-color="#04C29C"/>
    </linearGradient>
  </defs>
</svg>